<?xml version="1.0" encoding="utf-8"?>
<!-- Generator: Adobe Illustrator 17.0.0, SVG Export Plug-In . SVG Version: 6.00 Build 0)  -->
<!DOCTYPE svg PUBLIC "-//W3C//DTD SVG 1.1//EN" "http://www.w3.org/Graphics/SVG/1.1/DTD/svg11.dtd">
<svg version="1.1" id="Layer_1" xmlns="http://www.w3.org/2000/svg" xmlns:xlink="http://www.w3.org/1999/xlink" x="0px" y="0px"
	 width="64px" height="64px" viewBox="0 0 64 64" enable-background="new 0 0 64 64" xml:space="preserve">
<path fill="#0F1041" d="M49.304,32.79c-0.981-0.675-2.328-0.424-3.009,0.563c-0.675,0.983-0.424,2.382,0.563,3.059L52.019,40H40.9
	l-9.892-10.698L39.605,20h17.826c1.194,0,2.164-0.805,2.164-2c0-1.193-0.97-2-2.164-2H37.715l-9.657,10.462L14.622,12H4.083
	c-1.194,0-2.164,0.805-2.164,2c0,1.193,0.97,2,2.164,2h8.649l12.376,13.302L11.439,44H3.79c-1.194,0-2.164,0.805-2.164,2
	c0,1.195,0.969,2,2.164,2h9.539l14.729-15.858L39.008,44H52.41l-5.636,4.379c-0.952,0.721-1.139,2.135-0.418,3.087
	c0.424,0.562,1.073,0.884,1.725,0.884c0.456,0,0.915-0.127,1.307-0.421l13.239-10.018L49.304,32.79z"/>
</svg>
