<?xml version="1.0" encoding="utf-8"?>
<!-- Generator: Adobe Illustrator 17.0.0, SVG Export Plug-In . SVG Version: 6.00 Build 0)  -->
<!DOCTYPE svg PUBLIC "-//W3C//DTD SVG 1.1//EN" "http://www.w3.org/Graphics/SVG/1.1/DTD/svg11.dtd">
<svg version="1.1" id="Layer_1" xmlns="http://www.w3.org/2000/svg" xmlns:xlink="http://www.w3.org/1999/xlink" x="0px" y="0px"
	 width="64px" height="64px" viewBox="0 0 64 64" enable-background="new 0 0 64 64" xml:space="preserve">
<path fill="#AB63D4" d="M56.97,56.242H37.496l-0.666-3.329l5.301-7.289c3.579,0.54,7.684,2.033,13.169,4.906
	c1.055,0.615,1.67,1.669,1.67,2.812L56.97,56.242L56.97,56.242z M7.758,53.342c0-1.143,0.615-2.197,1.67-2.724
	c5.602-2.976,9.634-4.47,13.226-4.916l5.244,7.21l-0.666,3.329H7.758V53.342z M31.024,45.614l-2.369,5.331l-1.16-1.593l-3.655-5.061
	c-0.028-0.028-0.059-0.056-0.091-0.083l-0.964-1.323l0.352-1.582c0.119,0.128,0.24,0.253,0.361,0.376
	C25.561,43.789,28.134,45.262,31.024,45.614z M20.061,22.848c0-6.767,5.536-12.303,12.303-12.303
	c6.767,0,12.303,5.537,12.303,12.303V29c0,2.908-0.757,5.569-1.984,7.815c-2.098,0.608-5.115,0.973-9.44,0.973
	c-0.527,0-0.879,0.352-0.879,0.879s0.352,0.878,0.879,0.878c3.166,0,5.814-0.194,7.983-0.601c-0.054,0.054-0.108,0.107-0.162,0.162
	c-0.442,0.589-0.909,1.127-1.396,1.611c-2.069,1.928-4.537,3.096-6.916,3.211c-0.12-0.052-0.254-0.077-0.388-0.077
	c-0.135,0-0.257,0.026-0.366,0.078c-1.456-0.067-2.946-0.528-4.358-1.317c-1.431-0.822-2.777-2.007-3.976-3.506
	c-0.088-0.088-0.176-0.176-0.264-0.264l-0.051-0.017c-1.974-2.588-3.288-5.994-3.288-9.826V22.848z M18.215,29.615
	c0,0.527-0.439,1.055-1.055,1.055h-1.318c-0.527,0-1.055-0.439-1.055-1.055v-6.591c0-0.527,0.439-1.055,1.055-1.055h1.318
	c0.527,0,1.055,0.439,1.055,1.055V29.615z M32.364,7.03c5.417,0,14.533,1.768,14.925,13.284c-0.368,0.038-0.721,0.15-1.04,0.322
	c-1.069-6.692-6.904-11.849-13.885-11.849c-6.98,0-12.814,5.155-13.884,11.846c-0.314-0.17-0.665-0.282-1.041-0.319
	C17.831,8.798,26.947,7.03,32.364,7.03z M49.852,23.024v6.591c0,0.527-0.439,1.055-1.055,1.055h-1.318
	c-0.527,0-1.055-0.439-1.055-1.055V29v-5.976c0-0.527,0.439-1.055,1.055-1.055h1.318C49.325,21.969,49.852,22.409,49.852,23.024z
	 M45.023,35.836c0.496-1.206,0.869-2.459,1.106-3.723c0.335,0.203,0.716,0.338,1.126,0.384
	C47.102,33.739,46.55,34.912,45.023,35.836z M41.591,41.303l0.351,1.582l-0.898,1.232c-0.057,0.047-0.11,0.104-0.157,0.174
	l-3.655,5.061l-1.16,1.593l-2.369-5.331c2.89-0.353,5.463-1.825,7.526-3.936C41.352,41.556,41.472,41.431,41.591,41.303z
	 M29.587,53.606h5.551l0.514,2.636H29.06L29.587,53.606z M32.369,47.026l2.104,4.822h-4.248L32.369,47.026z M56.091,49.036
	c-5.245-2.781-9.268-4.341-12.85-4.939l0.371-0.509c0.176-0.176,0.264-0.439,0.176-0.703l-0.824-3.294
	c0.298-0.422,0.58-0.858,0.844-1.307c3.275-1.114,4.931-2.999,5.209-5.772c1.438-0.075,2.68-1.359,2.68-2.809v-6.591
	c0-1.443-1.148-2.722-2.652-2.807c-0.194-5.077-2.432-15.032-16.682-15.032c-14.25,0-16.488,9.956-16.682,15.032
	c-1.427,0.084-2.652,1.282-2.652,2.807v6.591c0,1.494,1.318,2.812,2.9,2.812h1.318c0.484,0,0.95-0.139,1.356-0.377
	c0.498,2.645,1.598,5.247,3.159,7.453l-0.824,3.294c0,0.176,0,0.439,0.176,0.703l0.371,0.509c-3.581,0.598-7.605,2.158-12.849,4.939
	C6.967,49.827,6,51.497,6,53.342v3.779C6,57.648,6.351,58,6.879,58H27.97h0.352h8.085h0.351h21.091c0.527,0,0.879-0.352,0.879-0.879
	v-3.779C58.728,51.585,57.673,49.915,56.091,49.036z"/>
</svg>
