<?xml version="1.0" encoding="utf-8"?>
<!-- Generator: Adobe Illustrator 17.0.0, SVG Export Plug-In . SVG Version: 6.00 Build 0)  -->
<!DOCTYPE svg PUBLIC "-//W3C//DTD SVG 1.1//EN" "http://www.w3.org/Graphics/SVG/1.1/DTD/svg11.dtd">
<svg version="1.1" id="Layer_1" xmlns="http://www.w3.org/2000/svg" xmlns:xlink="http://www.w3.org/1999/xlink" x="0px" y="0px"
	 width="64px" height="64px" viewBox="0 0 64 64" enable-background="new 0 0 64 64" xml:space="preserve">
<g>
	<path fill="#1198FC" d="M46,7.5C46,5.57,44.43,4,42.5,4h-21C19.57,4,18,5.57,18,7.5v11.667c0,1.93,1.57,3.5,3.5,3.5h6.417l3.15,4.2
		c0.21,0.28,0.539,0.453,0.889,0.467c0.014,0,0.03,0,0.044,0c0.336,0,0.656-0.145,0.877-0.399l3.736-4.268H42.5
		c1.93,0,3.5-1.57,3.5-3.5V7.5z M43.667,19.167c0,0.644-0.523,1.167-1.167,1.167h-6.417c-0.336,0-0.656,0.145-0.877,0.396
		l-3.136,3.584L29.433,20.8c-0.219-0.294-0.567-0.466-0.933-0.466h-7c-0.644,0-1.167-0.523-1.167-1.167V7.5
		c0-0.644,0.523-1.167,1.167-1.167h21c0.644,0,1.167,0.522,1.167,1.167V19.167z"/>
	<path fill="#1198FC" d="M49.731,29.198c0.21,0.282,0.537,0.455,0.889,0.469c0.016,0,0.033,0,0.047,0
		c0.336,0,0.656-0.145,0.877-0.399L55.28,25h1.22c1.93,0,3.5-1.57,3.5-3.5V9.833c0-1.929-1.57-3.5-3.5-3.5h-4.667
		c-0.644,0-1.167,0.523-1.167,1.167s0.523,1.167,1.167,1.167H56.5c0.644,0,1.167,0.523,1.167,1.167V21.5
		c0,0.644-0.523,1.167-1.167,1.167h-1.75c-0.336,0-0.656,0.145-0.88,0.399l-3.131,3.58l-0.98-1.316
		c-0.387-0.518-1.118-0.625-1.633-0.238c-0.516,0.385-0.623,1.115-0.238,1.633L49.731,29.198z"/>
	<path fill="#1198FC" d="M7.5,25h1.22l3.736,4.268c0.222,0.254,0.541,0.399,0.877,0.399c0.014,0,0.03,0,0.047,0
		c0.35-0.014,0.679-0.187,0.887-0.469l1.843-2.474c0.385-0.518,0.278-1.248-0.238-1.633c-0.516-0.385-1.248-0.277-1.633,0.238
		l-0.98,1.316l-3.131-3.58c-0.222-0.254-0.541-0.399-0.877-0.399H7.5c-0.644,0-1.167-0.522-1.167-1.167V9.833
		c0-0.644,0.523-1.167,1.167-1.167h4.667c0.644,0,1.167-0.522,1.167-1.167s-0.523-1.167-1.167-1.167H7.5c-1.93,0-3.5,1.571-3.5,3.5
		V21.5C4,23.43,5.57,25,7.5,25z"/>
	<path fill="#1198FC" d="M50.667,43.667c2.574,0,4.667-2.093,4.667-4.667s-2.093-4.667-4.667-4.667S46,36.426,46,39
		S48.093,43.667,50.667,43.667z M50.667,36.667C51.952,36.667,53,37.714,53,39s-1.048,2.333-2.333,2.333
		c-1.286,0-2.333-1.047-2.333-2.333S49.381,36.667,50.667,36.667z"/>
	<path fill="#1198FC" d="M54.167,46h-7C46.523,46,46,46.522,46,47.167s0.523,1.167,1.167,1.167h7c1.93,0,3.5,1.57,3.5,3.5v2.333
		c0,0.644,0.523,1.167,1.167,1.167S60,54.811,60,54.167v-2.333C60,48.618,57.382,46,54.167,46z"/>
	<path fill="#1198FC" d="M13.333,34.333c-2.574,0-4.667,2.093-4.667,4.667s2.093,4.667,4.667,4.667S18,41.574,18,39
		S15.907,34.333,13.333,34.333z M13.333,41.333C12.048,41.333,11,40.286,11,39s1.048-2.333,2.333-2.333
		c1.286,0,2.333,1.048,2.333,2.333S14.619,41.333,13.333,41.333z"/>
	<path fill="#1198FC" d="M16.833,46h-7C6.618,46,4,48.618,4,51.833v2.333c0,0.644,0.523,1.167,1.167,1.167s1.167-0.523,1.167-1.167
		v-2.333c0-1.93,1.57-3.5,3.5-3.5h7c0.644,0,1.167-0.523,1.167-1.167S17.477,46,16.833,46z"/>
	<path fill="#1198FC" d="M39,37.833c0-3.859-3.141-7-7-7c-3.859,0-7,3.141-7,7c0,3.859,3.141,7,7,7
		C35.859,44.833,39,41.692,39,37.833z M27.333,37.833c0-2.574,2.093-4.667,4.667-4.667c2.574,0,4.667,2.093,4.667,4.667
		c0,2.573-2.093,4.667-4.667,4.667C29.426,42.5,27.333,40.407,27.333,37.833z"/>
	<path fill="#1198FC" d="M39,48.333H25c-3.215,0-5.833,2.618-5.833,5.833v4.667c0,0.645,0.523,1.167,1.167,1.167
		s1.167-0.522,1.167-1.167v-4.667c0-1.93,1.57-3.5,3.5-3.5h14c1.93,0,3.5,1.57,3.5,3.5v4.667c0,0.645,0.523,1.167,1.167,1.167
		c0.644,0,1.167-0.522,1.167-1.167v-4.667C44.833,50.951,42.215,48.333,39,48.333z"/>
</g>
</svg>
