<?xml version="1.0" encoding="utf-8"?>
<!-- Generator: Adobe Illustrator 17.0.0, SVG Export Plug-In . SVG Version: 6.00 Build 0)  -->
<!DOCTYPE svg PUBLIC "-//W3C//DTD SVG 1.1//EN" "http://www.w3.org/Graphics/SVG/1.1/DTD/svg11.dtd">
<svg version="1.1" id="Layer_1" xmlns="http://www.w3.org/2000/svg" xmlns:xlink="http://www.w3.org/1999/xlink" x="0px" y="0px"
	 width="64px" height="64px" viewBox="0 0 64 64" enable-background="new 0 0 64 64" xml:space="preserve">
<g>
	<path fill="#F48D7A" d="M59.75,24.522c-0.217-0.518-0.623-0.92-1.142-1.133l-3.669-1.501c-0.519-0.212-1.091-0.21-1.608,0.007
		c-0.518,0.217-0.92,0.623-1.133,1.142l-4.178,10.21V16.564c0-0.217-0.086-0.425-0.239-0.578L37.033,5.239
		C36.88,5.086,36.672,5,36.456,5H5.817C5.366,5,5,5.366,5,5.817v6.304c0,0.451,0.366,0.817,0.817,0.817s0.817-0.366,0.817-0.817
		V6.634h29.005v9.931c0,0.451,0.366,0.816,0.817,0.816h9.931v19.858l-3.601,8.801c-0.045,0.111-0.066,0.23-0.06,0.35l0.384,7.688
		c0.016,0.316,0.213,0.595,0.506,0.715c0.1,0.041,0.205,0.061,0.309,0.061c0.201,0,0.4-0.074,0.553-0.216l1.907-1.755v5.483H6.634
		V15.388c0-0.451-0.365-0.817-0.817-0.817C5.366,14.571,5,14.938,5,15.388v43.795C5,59.634,5.366,60,5.817,60h41.386
		c0.451,0,0.817-0.366,0.817-0.817v-7.804l2.123-1.954c0.088-0.082,0.157-0.181,0.203-0.292l3.703-9.051
		c0.171-0.417-0.029-0.895-0.447-1.065c-0.417-0.171-0.894,0.029-1.065,0.446l-3.394,8.295l-4.536-1.856l6.97-17.035l4.536,1.856
		l-2.405,5.878c-0.171,0.417,0.029,0.895,0.447,1.065c0.418,0.17,0.894-0.029,1.065-0.447l4.537-11.089
		C59.969,25.612,59.967,25.04,59.75,24.522z M37.272,15.748V7.789l7.959,7.959H37.272z M48.091,49.093l-3.436,3.164l-0.234-4.665
		L48.091,49.093z M58.245,25.512l-1.514,3.699l-4.536-1.856l1.514-3.699c0.047-0.115,0.137-0.206,0.253-0.254
		c0.116-0.049,0.243-0.05,0.358-0.002l3.669,1.501c0.115,0.047,0.206,0.137,0.254,0.252C58.291,25.27,58.292,25.396,58.245,25.512z"
		/>
	<path fill="#F48D7A" d="M32.183,13.918H22.055c-0.451,0-0.817,0.365-0.817,0.816s0.366,0.817,0.817,0.817h10.128
		c0.451,0,0.817-0.366,0.817-0.817S32.634,13.918,32.183,13.918z"/>
	<path fill="#F48D7A" d="M11.317,31.833h6.458c0.451,0,0.817-0.366,0.817-0.817v-5.785l1.219-1.552
		c0.279-0.354,0.217-0.868-0.138-1.147c-0.355-0.278-0.868-0.217-1.147,0.138l-0.842,1.071h-6.367c-0.451,0-0.817,0.366-0.817,0.817
		v6.458C10.5,31.467,10.866,31.833,11.317,31.833z M12.133,25.375L12.133,25.375h4.268l-1.3,1.654l-0.909-0.909
		c-0.319-0.319-0.836-0.319-1.155,0c-0.319,0.319-0.319,0.836,0,1.155l1.56,1.56c0.154,0.154,0.362,0.239,0.577,0.239
		c0.016,0,0.033,0,0.049-0.001c0.233-0.014,0.449-0.127,0.593-0.311l1.141-1.453v2.889h-4.824V25.375z"/>
	<path fill="#F48D7A" d="M40.895,25.01H23.416c-0.451,0-0.817,0.366-0.817,0.817c0,0.451,0.366,0.817,0.817,0.817h17.479
		c0.452,0,0.817-0.366,0.817-0.817C41.712,25.376,41.347,25.01,40.895,25.01z"/>
	<path fill="#F48D7A" d="M23.416,30.564h14.049c0.451,0,0.817-0.366,0.817-0.817s-0.365-0.816-0.817-0.816H23.416
		c-0.451,0-0.817,0.366-0.817,0.816C22.599,30.198,22.965,30.564,23.416,30.564z"/>
	<path fill="#F48D7A" d="M10.5,41.743c0,0.451,0.366,0.817,0.817,0.817h6.458c0.451,0,0.817-0.366,0.817-0.817v-5.785l1.219-1.552
		c0.279-0.354,0.217-0.868-0.138-1.146c-0.355-0.279-0.868-0.217-1.147,0.137l-0.842,1.071h-6.367c-0.451,0-0.817,0.366-0.817,0.817
		V41.743z M12.133,36.102L12.133,36.102h4.268l-1.3,1.655l-0.909-0.91c-0.319-0.319-0.836-0.319-1.155,0
		c-0.319,0.319-0.319,0.836,0,1.155l1.56,1.56c0.154,0.154,0.362,0.239,0.577,0.239c0.016,0,0.033,0,0.049-0.001
		c0.233-0.014,0.449-0.127,0.593-0.311l1.141-1.453v2.889h-4.824V36.102z"/>
	<path fill="#F48D7A" d="M40.895,35.737H23.416c-0.451,0-0.817,0.366-0.817,0.817s0.366,0.816,0.817,0.816h17.479
		c0.452,0,0.817-0.366,0.817-0.816C41.712,36.103,41.347,35.737,40.895,35.737z"/>
	<path fill="#F48D7A" d="M23.416,41.292h5.228c0.451,0,0.817-0.366,0.817-0.817c0-0.451-0.365-0.817-0.817-0.817h-5.228
		c-0.451,0-0.817,0.366-0.817,0.817C22.599,40.926,22.965,41.292,23.416,41.292z"/>
	<path fill="#F48D7A" d="M10.5,52.47c0,0.451,0.366,0.817,0.817,0.817h6.458c0.451,0,0.817-0.366,0.817-0.817v-6.458
		c0-0.451-0.365-0.817-0.817-0.817h-6.458c-0.451,0-0.817,0.366-0.817,0.817V52.47z M12.134,46.829h4.824v4.824h-4.824V46.829z"/>
	<path fill="#F48D7A" d="M41.712,47.281c0-0.451-0.365-0.817-0.817-0.817H23.416c-0.451,0-0.817,0.366-0.817,0.817
		s0.366,0.816,0.817,0.816h17.479C41.347,48.098,41.712,47.732,41.712,47.281z"/>
	<path fill="#F48D7A" d="M23.416,50.384c-0.451,0-0.817,0.366-0.817,0.817s0.366,0.817,0.817,0.817h14.865
		c0.451,0,0.817-0.366,0.817-0.817s-0.365-0.817-0.817-0.817H23.416z"/>
</g>
</svg>
