<?xml version="1.0" encoding="utf-8"?>
<!-- Generator: Adobe Illustrator 17.0.0, SVG Export Plug-In . SVG Version: 6.00 Build 0)  -->
<!DOCTYPE svg PUBLIC "-//W3C//DTD SVG 1.1//EN" "http://www.w3.org/Graphics/SVG/1.1/DTD/svg11.dtd">
<svg version="1.1" id="Layer_1" xmlns="http://www.w3.org/2000/svg" xmlns:xlink="http://www.w3.org/1999/xlink" x="0px" y="0px"
	 width="64px" height="64px" viewBox="0 0 64 64" enable-background="new 0 0 64 64" xml:space="preserve">
<path fill="#F0FFFF" d="M16.591,13.851c-1.511,0-2.74-1.229-2.74-2.739s1.229-2.739,2.74-2.739s2.74,1.229,2.74,2.739
	S18.102,13.851,16.591,13.851z M60.27,8.712H23.735c-1.004-2.984-3.826-5.138-7.144-5.138s-6.139,2.155-7.144,5.138H3.744
	c-1.325,0-2.399,1.074-2.399,2.399c0,1.324,1.074,2.399,2.399,2.399h5.703c1.004,2.983,3.826,5.138,7.144,5.138
	s6.139-2.156,7.144-5.138H60.27c1.325,0,2.399-1.075,2.399-2.399C62.669,9.786,61.595,8.712,60.27,8.712z"/>
<path fill="#F0FFFF" d="M47.423,34.405c-1.511,0-2.74-1.229-2.74-2.739c0-1.51,1.229-2.74,2.74-2.74c1.511,0,2.74,1.23,2.74,2.74
	C50.163,33.177,48.934,34.405,47.423,34.405z M60.27,29.267h-5.703c-1.004-2.983-3.826-5.138-7.144-5.138
	c-3.317,0-6.139,2.156-7.144,5.138H3.744c-1.325,0-2.399,1.075-2.399,2.399c0,1.324,1.074,2.399,2.399,2.399h36.535
	c1.004,2.983,3.826,5.138,7.144,5.138c3.317,0,6.139-2.156,7.144-5.138h5.703c1.325,0,2.399-1.075,2.399-2.399
	C62.669,30.342,61.595,29.267,60.27,29.267z"/>
<path fill="#F0FFFF" d="M26.869,54.961c-1.511,0-2.74-1.23-2.74-2.74s1.229-2.739,2.74-2.739c1.511,0,2.74,1.229,2.74,2.739
	S28.379,54.961,26.869,54.961z M60.27,49.822H34.012c-1.004-2.984-3.826-5.138-7.144-5.138c-3.318,0-6.139,2.155-7.144,5.138H3.744
	c-1.325,0-2.399,1.074-2.399,2.399c0,1.324,1.074,2.399,2.399,2.399h15.98c1.004,2.983,3.826,5.138,7.144,5.138
	c3.317,0,6.139-2.156,7.144-5.138H60.27c1.325,0,2.399-1.075,2.399-2.399C62.669,50.896,61.595,49.822,60.27,49.822z"/>
</svg>
