<?xml version="1.0" encoding="utf-8"?>
<!-- Generator: Adobe Illustrator 17.0.0, SVG Export Plug-In . SVG Version: 6.00 Build 0)  -->
<!DOCTYPE svg PUBLIC "-//W3C//DTD SVG 1.1//EN" "http://www.w3.org/Graphics/SVG/1.1/DTD/svg11.dtd">
<svg version="1.1" id="Layer_1" xmlns="http://www.w3.org/2000/svg" xmlns:xlink="http://www.w3.org/1999/xlink" x="0px" y="0px"
	 width="64px" height="64px" viewBox="0 0 64 64" enable-background="new 0 0 64 64" xml:space="preserve">
<path fill="#F47F20" d="M44.91,33.603l13.077,16.423c0.013,0.017,0.029,0.03,0.043,0.045H5.891c0.014-0.016,0.03-0.027,0.043-0.045
	l13.077-16.423c0.401-0.503,0.325-1.242-0.172-1.65c-0.495-0.408-1.222-0.33-1.622,0.173L4.268,48.39V15.562l24.538,18.711
	c0.922,0.698,2.045,1.006,3.154,1.008c1.108-0.002,2.231-0.309,3.154-1.008l24.538-18.711v32.827L46.703,32.126
	c-0.401-0.503-1.128-0.581-1.622-0.173C44.585,32.361,44.509,33.1,44.91,33.603z M57.729,14.096l-23.998,18.3
	c-0.431,0.335-1.094,0.543-1.77,0.54c-0.676,0.003-1.338-0.205-1.77-0.54l-23.998-18.3H57.729z M58.883,11.75H5.037
	c-1.692,0-3.077,1.408-3.077,3.129v34.41c0,1.721,1.385,3.129,3.077,3.129h53.846c1.692,0,3.077-1.408,3.077-3.129v-34.41
	C61.96,13.158,60.576,11.75,58.883,11.75z"/>
</svg>
