<?xml version="1.0" encoding="utf-8"?>
<!-- Generator: Adobe Illustrator 17.0.0, SVG Export Plug-In . SVG Version: 6.00 Build 0)  -->
<!DOCTYPE svg PUBLIC "-//W3C//DTD SVG 1.1//EN" "http://www.w3.org/Graphics/SVG/1.1/DTD/svg11.dtd">
<svg version="1.1" id="Layer_1" xmlns="http://www.w3.org/2000/svg" xmlns:xlink="http://www.w3.org/1999/xlink" x="0px" y="0px"
	 width="149px" height="150.5px" viewBox="0 0 149 150.5" enable-background="new 0 0 149 150.5" xml:space="preserve">
<path fill="#F9B544" d="M10.175,9c0.355,0,0.696,0.068,1.024,0.204c0.328,0.136,0.617,0.329,0.868,0.58
	c0.251,0.251,0.444,0.54,0.58,0.868c0.136,0.328,0.204,0.668,0.204,1.023c0,0.354-0.068,0.696-0.204,1.023s-0.329,0.617-0.58,0.868
	c-0.251,0.251-0.54,0.444-0.868,0.58c-0.328,0.136-0.669,0.204-1.024,0.204c-0.355,0-0.696-0.068-1.024-0.204
	c-0.328-0.136-0.617-0.329-0.868-0.58c-0.251-0.25-0.444-0.54-0.58-0.868S7.5,12.029,7.5,11.675c0-0.355,0.068-0.696,0.203-1.023
	c0.136-0.328,0.329-0.617,0.58-0.868c0.251-0.25,0.54-0.444,0.868-0.58C9.479,9.068,9.82,9,10.175,9z"/>
<path fill="#F9B544" d="M24.633,9c0.355,0,0.696,0.068,1.024,0.204c0.328,0.136,0.617,0.329,0.868,0.58
	c0.251,0.251,0.444,0.54,0.58,0.868c0.136,0.328,0.204,0.668,0.204,1.023c0,0.354-0.068,0.696-0.204,1.023s-0.329,0.617-0.58,0.868
	c-0.251,0.251-0.54,0.444-0.868,0.58c-0.328,0.136-0.669,0.204-1.024,0.204c-0.355,0-0.696-0.068-1.024-0.204
	c-0.328-0.136-0.617-0.329-0.868-0.58c-0.251-0.25-0.444-0.54-0.58-0.868s-0.203-0.669-0.203-1.023c0-0.355,0.068-0.696,0.203-1.023
	c0.136-0.328,0.329-0.617,0.58-0.868c0.251-0.25,0.54-0.444,0.868-0.58C23.937,9.068,24.278,9,24.633,9z"/>
<path fill="#F9B544" d="M39.09,9c0.355,0,0.696,0.068,1.024,0.204c0.328,0.136,0.617,0.329,0.868,0.58
	c0.251,0.251,0.444,0.54,0.58,0.868c0.136,0.328,0.204,0.668,0.204,1.023c0,0.354-0.068,0.696-0.204,1.023s-0.329,0.617-0.58,0.868
	c-0.251,0.251-0.54,0.444-0.868,0.58c-0.328,0.136-0.669,0.204-1.024,0.204c-0.355,0-0.696-0.068-1.024-0.204
	c-0.328-0.136-0.617-0.329-0.868-0.58c-0.251-0.25-0.444-0.54-0.58-0.868s-0.203-0.669-0.203-1.023c0-0.355,0.068-0.696,0.203-1.023
	c0.136-0.328,0.329-0.617,0.58-0.868c0.251-0.25,0.54-0.444,0.868-0.58C38.395,9.068,38.736,9,39.09,9z"/>
<path fill="#F9B544" d="M53.548,9c0.355,0,0.696,0.068,1.024,0.204c0.328,0.136,0.617,0.329,0.868,0.58
	c0.251,0.251,0.444,0.54,0.58,0.868c0.136,0.328,0.204,0.668,0.204,1.023c0,0.354-0.068,0.696-0.204,1.023s-0.329,0.617-0.58,0.868
	c-0.251,0.251-0.54,0.444-0.868,0.58c-0.328,0.136-0.669,0.204-1.024,0.204c-0.355,0-0.696-0.068-1.024-0.204
	c-0.328-0.136-0.617-0.329-0.868-0.58c-0.251-0.25-0.444-0.54-0.58-0.868s-0.203-0.669-0.203-1.023c0-0.355,0.068-0.696,0.203-1.023
	c0.136-0.328,0.329-0.617,0.58-0.868c0.251-0.25,0.54-0.444,0.868-0.58C52.852,9.068,53.193,9,53.548,9z"/>
<path fill="#F9B544" d="M68.006,9c0.355,0,0.696,0.068,1.024,0.204c0.328,0.136,0.617,0.329,0.868,0.58
	c0.251,0.251,0.444,0.54,0.58,0.868c0.136,0.328,0.204,0.668,0.204,1.023c0,0.354-0.068,0.696-0.204,1.023s-0.329,0.617-0.58,0.868
	c-0.251,0.251-0.54,0.444-0.868,0.58c-0.328,0.136-0.669,0.204-1.024,0.204c-0.355,0-0.696-0.068-1.024-0.204
	c-0.328-0.136-0.617-0.329-0.868-0.58c-0.251-0.25-0.444-0.54-0.58-0.868s-0.203-0.669-0.203-1.023c0-0.355,0.068-0.696,0.203-1.023
	c0.136-0.328,0.329-0.617,0.58-0.868c0.251-0.25,0.54-0.444,0.868-0.58C67.31,9.068,67.651,9,68.006,9z"/>
<path fill="#F9B544" d="M82.464,9c0.355,0,0.696,0.068,1.024,0.204c0.328,0.136,0.617,0.329,0.868,0.58
	c0.251,0.251,0.444,0.54,0.58,0.868c0.136,0.328,0.204,0.668,0.204,1.023c0,0.354-0.068,0.696-0.204,1.023s-0.329,0.617-0.58,0.868
	c-0.251,0.251-0.54,0.444-0.868,0.58c-0.328,0.136-0.669,0.204-1.024,0.204c-0.355,0-0.696-0.068-1.024-0.204
	c-0.328-0.136-0.617-0.329-0.868-0.58c-0.251-0.25-0.444-0.54-0.58-0.868s-0.203-0.669-0.203-1.023c0-0.355,0.068-0.696,0.203-1.023
	c0.136-0.328,0.329-0.617,0.58-0.868c0.251-0.25,0.54-0.444,0.868-0.58C81.768,9.068,82.109,9,82.464,9z"/>
<path fill="#F9B544" d="M96.922,9c0.355,0,0.696,0.068,1.024,0.204c0.328,0.136,0.617,0.329,0.868,0.58
	c0.251,0.251,0.444,0.54,0.58,0.868c0.136,0.328,0.204,0.668,0.204,1.023c0,0.354-0.068,0.696-0.204,1.023s-0.329,0.617-0.58,0.868
	c-0.251,0.251-0.54,0.444-0.868,0.58c-0.328,0.136-0.669,0.204-1.024,0.204c-0.355,0-0.696-0.068-1.024-0.204
	c-0.328-0.136-0.617-0.329-0.868-0.58c-0.251-0.25-0.444-0.54-0.58-0.868s-0.203-0.669-0.203-1.023c0-0.355,0.068-0.696,0.203-1.023
	c0.136-0.328,0.329-0.617,0.58-0.868c0.251-0.25,0.54-0.444,0.868-0.58C96.226,9.068,96.567,9,96.922,9z"/>
<path fill="#F9B544" d="M111.38,9c0.355,0,0.696,0.068,1.024,0.204c0.328,0.136,0.617,0.329,0.868,0.58
	c0.251,0.251,0.444,0.54,0.58,0.868c0.136,0.328,0.204,0.668,0.204,1.023c0,0.354-0.068,0.696-0.204,1.023s-0.329,0.617-0.58,0.868
	c-0.251,0.251-0.54,0.444-0.868,0.58c-0.328,0.136-0.669,0.204-1.024,0.204c-0.355,0-0.696-0.068-1.024-0.204
	c-0.328-0.136-0.617-0.329-0.868-0.58c-0.251-0.25-0.444-0.54-0.58-0.868s-0.203-0.669-0.203-1.023c0-0.355,0.068-0.696,0.203-1.023
	c0.136-0.328,0.329-0.617,0.58-0.868c0.251-0.25,0.54-0.444,0.868-0.58C110.684,9.068,111.025,9,111.38,9z"/>
<path fill="#F9B544" d="M125.837,9c0.355,0,0.696,0.068,1.024,0.204c0.328,0.136,0.617,0.329,0.868,0.58
	c0.251,0.251,0.444,0.54,0.58,0.868c0.136,0.328,0.204,0.668,0.204,1.023c0,0.354-0.068,0.696-0.204,1.023s-0.329,0.617-0.58,0.868
	c-0.251,0.251-0.54,0.444-0.868,0.58c-0.328,0.136-0.669,0.204-1.024,0.204c-0.355,0-0.696-0.068-1.024-0.204
	c-0.328-0.136-0.617-0.329-0.868-0.58c-0.251-0.25-0.444-0.54-0.58-0.868s-0.203-0.669-0.203-1.023c0-0.355,0.068-0.696,0.203-1.023
	c0.136-0.328,0.329-0.617,0.58-0.868c0.251-0.25,0.54-0.444,0.868-0.58C125.141,9.068,125.483,9,125.837,9z"/>
<path fill="#F9B544" d="M140.295,9c0.355,0,0.696,0.068,1.024,0.204c0.328,0.136,0.617,0.329,0.868,0.58
	c0.251,0.251,0.444,0.54,0.58,0.868c0.136,0.328,0.204,0.668,0.204,1.023c0,0.354-0.068,0.696-0.204,1.023s-0.329,0.617-0.58,0.868
	c-0.251,0.251-0.54,0.444-0.868,0.58c-0.328,0.136-0.669,0.204-1.024,0.204c-0.355,0-0.696-0.068-1.024-0.204
	c-0.328-0.136-0.617-0.329-0.868-0.58c-0.251-0.25-0.444-0.54-0.58-0.868s-0.203-0.669-0.203-1.023c0-0.355,0.068-0.696,0.203-1.023
	c0.136-0.328,0.329-0.617,0.58-0.868c0.251-0.25,0.54-0.444,0.868-0.58C139.599,9.068,139.941,9,140.295,9z"/>
<path fill="#F9B544" d="M10.175,23.53c0.355,0,0.696,0.068,1.024,0.204c0.328,0.136,0.617,0.329,0.868,0.58
	c0.251,0.251,0.444,0.54,0.58,0.868s0.204,0.669,0.204,1.024c0,0.354-0.068,0.696-0.204,1.023s-0.329,0.617-0.58,0.868
	c-0.251,0.25-0.54,0.444-0.868,0.58c-0.328,0.136-0.669,0.204-1.024,0.204c-0.355,0-0.696-0.068-1.024-0.204
	c-0.328-0.136-0.617-0.329-0.868-0.58c-0.251-0.251-0.444-0.54-0.58-0.868S7.5,26.56,7.5,26.205c0-0.355,0.068-0.696,0.203-1.024
	s0.329-0.617,0.58-0.868c0.251-0.251,0.54-0.444,0.868-0.58C9.479,23.598,9.82,23.53,10.175,23.53z"/>
<path fill="#F9B544" d="M24.633,23.53c0.355,0,0.696,0.068,1.024,0.204c0.328,0.136,0.617,0.329,0.868,0.58
	c0.251,0.251,0.444,0.54,0.58,0.868s0.204,0.669,0.204,1.024c0,0.354-0.068,0.696-0.204,1.023s-0.329,0.617-0.58,0.868
	c-0.251,0.25-0.54,0.444-0.868,0.58c-0.328,0.136-0.669,0.204-1.024,0.204c-0.355,0-0.696-0.068-1.024-0.204
	c-0.328-0.136-0.617-0.329-0.868-0.58c-0.251-0.251-0.444-0.54-0.58-0.868s-0.203-0.669-0.203-1.023
	c0-0.355,0.068-0.696,0.203-1.024s0.329-0.617,0.58-0.868c0.251-0.251,0.54-0.444,0.868-0.58
	C23.937,23.598,24.278,23.53,24.633,23.53z"/>
<path fill="#F9B544" d="M39.09,23.53c0.355,0,0.696,0.068,1.024,0.204c0.328,0.136,0.617,0.329,0.868,0.58
	c0.251,0.251,0.444,0.54,0.58,0.868s0.204,0.669,0.204,1.024c0,0.354-0.068,0.696-0.204,1.023s-0.329,0.617-0.58,0.868
	c-0.251,0.25-0.54,0.444-0.868,0.58c-0.328,0.136-0.669,0.204-1.024,0.204c-0.355,0-0.696-0.068-1.024-0.204
	c-0.328-0.136-0.617-0.329-0.868-0.58c-0.251-0.251-0.444-0.54-0.58-0.868s-0.203-0.669-0.203-1.023
	c0-0.355,0.068-0.696,0.203-1.024s0.329-0.617,0.58-0.868c0.251-0.251,0.54-0.444,0.868-0.58
	C38.395,23.598,38.736,23.53,39.09,23.53z"/>
<path fill="#F9B544" d="M53.548,23.53c0.355,0,0.696,0.068,1.024,0.204c0.328,0.136,0.617,0.329,0.868,0.58
	c0.251,0.251,0.444,0.54,0.58,0.868s0.204,0.669,0.204,1.024c0,0.354-0.068,0.696-0.204,1.023s-0.329,0.617-0.58,0.868
	c-0.251,0.25-0.54,0.444-0.868,0.58c-0.328,0.136-0.669,0.204-1.024,0.204c-0.355,0-0.696-0.068-1.024-0.204
	c-0.328-0.136-0.617-0.329-0.868-0.58c-0.251-0.251-0.444-0.54-0.58-0.868s-0.203-0.669-0.203-1.023
	c0-0.355,0.068-0.696,0.203-1.024s0.329-0.617,0.58-0.868c0.251-0.251,0.54-0.444,0.868-0.58
	C52.852,23.598,53.193,23.53,53.548,23.53z"/>
<path fill="#F9B544" d="M68.006,23.53c0.355,0,0.696,0.068,1.024,0.204c0.328,0.136,0.617,0.329,0.868,0.58
	c0.251,0.251,0.444,0.54,0.58,0.868s0.204,0.669,0.204,1.024c0,0.354-0.068,0.696-0.204,1.023s-0.329,0.617-0.58,0.868
	c-0.251,0.25-0.54,0.444-0.868,0.58c-0.328,0.136-0.669,0.204-1.024,0.204c-0.355,0-0.696-0.068-1.024-0.204
	c-0.328-0.136-0.617-0.329-0.868-0.58c-0.251-0.251-0.444-0.54-0.58-0.868s-0.203-0.669-0.203-1.023
	c0-0.355,0.068-0.696,0.203-1.024s0.329-0.617,0.58-0.868c0.251-0.251,0.54-0.444,0.868-0.58
	C67.31,23.598,67.651,23.53,68.006,23.53z"/>
<path fill="#F9B544" d="M82.464,23.53c0.355,0,0.696,0.068,1.024,0.204c0.328,0.136,0.617,0.329,0.868,0.58
	c0.251,0.251,0.444,0.54,0.58,0.868s0.204,0.669,0.204,1.024c0,0.354-0.068,0.696-0.204,1.023s-0.329,0.617-0.58,0.868
	c-0.251,0.25-0.54,0.444-0.868,0.58c-0.328,0.136-0.669,0.204-1.024,0.204c-0.355,0-0.696-0.068-1.024-0.204
	c-0.328-0.136-0.617-0.329-0.868-0.58c-0.251-0.251-0.444-0.54-0.58-0.868s-0.203-0.669-0.203-1.023
	c0-0.355,0.068-0.696,0.203-1.024s0.329-0.617,0.58-0.868c0.251-0.251,0.54-0.444,0.868-0.58
	C81.768,23.598,82.109,23.53,82.464,23.53z"/>
<path fill="#F9B544" d="M96.922,23.53c0.355,0,0.696,0.068,1.024,0.204c0.328,0.136,0.617,0.329,0.868,0.58
	c0.251,0.251,0.444,0.54,0.58,0.868s0.204,0.669,0.204,1.024c0,0.354-0.068,0.696-0.204,1.023s-0.329,0.617-0.58,0.868
	c-0.251,0.25-0.54,0.444-0.868,0.58c-0.328,0.136-0.669,0.204-1.024,0.204c-0.355,0-0.696-0.068-1.024-0.204
	c-0.328-0.136-0.617-0.329-0.868-0.58c-0.251-0.251-0.444-0.54-0.58-0.868s-0.203-0.669-0.203-1.023
	c0-0.355,0.068-0.696,0.203-1.024s0.329-0.617,0.58-0.868c0.251-0.251,0.54-0.444,0.868-0.58
	C96.226,23.598,96.567,23.53,96.922,23.53z"/>
<path fill="#F9B544" d="M111.38,23.53c0.355,0,0.696,0.068,1.024,0.204c0.328,0.136,0.617,0.329,0.868,0.58
	c0.251,0.251,0.444,0.54,0.58,0.868s0.204,0.669,0.204,1.024c0,0.354-0.068,0.696-0.204,1.023s-0.329,0.617-0.58,0.868
	c-0.251,0.25-0.54,0.444-0.868,0.58c-0.328,0.136-0.669,0.204-1.024,0.204c-0.355,0-0.696-0.068-1.024-0.204
	c-0.328-0.136-0.617-0.329-0.868-0.58c-0.251-0.251-0.444-0.54-0.58-0.868s-0.203-0.669-0.203-1.023
	c0-0.355,0.068-0.696,0.203-1.024s0.329-0.617,0.58-0.868c0.251-0.251,0.54-0.444,0.868-0.58
	C110.684,23.598,111.025,23.53,111.38,23.53z"/>
<path fill="#F9B544" d="M125.837,23.53c0.355,0,0.696,0.068,1.024,0.204c0.328,0.136,0.617,0.329,0.868,0.58
	c0.251,0.251,0.444,0.54,0.58,0.868s0.204,0.669,0.204,1.024c0,0.354-0.068,0.696-0.204,1.023s-0.329,0.617-0.58,0.868
	c-0.251,0.25-0.54,0.444-0.868,0.58c-0.328,0.136-0.669,0.204-1.024,0.204c-0.355,0-0.696-0.068-1.024-0.204
	c-0.328-0.136-0.617-0.329-0.868-0.58c-0.251-0.251-0.444-0.54-0.58-0.868s-0.203-0.669-0.203-1.023
	c0-0.355,0.068-0.696,0.203-1.024s0.329-0.617,0.58-0.868c0.251-0.251,0.54-0.444,0.868-0.58
	C125.141,23.598,125.483,23.53,125.837,23.53z"/>
<path fill="#F9B544" d="M140.295,23.53c0.355,0,0.696,0.068,1.024,0.204c0.328,0.136,0.617,0.329,0.868,0.58
	c0.251,0.251,0.444,0.54,0.58,0.868s0.204,0.669,0.204,1.024c0,0.354-0.068,0.696-0.204,1.023s-0.329,0.617-0.58,0.868
	c-0.251,0.25-0.54,0.444-0.868,0.58c-0.328,0.136-0.669,0.204-1.024,0.204c-0.355,0-0.696-0.068-1.024-0.204
	c-0.328-0.136-0.617-0.329-0.868-0.58c-0.251-0.251-0.444-0.54-0.58-0.868s-0.203-0.669-0.203-1.023
	c0-0.355,0.068-0.696,0.203-1.024s0.329-0.617,0.58-0.868c0.251-0.251,0.54-0.444,0.868-0.58
	C139.599,23.598,139.941,23.53,140.295,23.53z"/>
<path fill="#F9B544" d="M10.175,38.06c0.355,0,0.696,0.068,1.024,0.204c0.328,0.136,0.617,0.329,0.868,0.58
	c0.251,0.25,0.444,0.54,0.58,0.868s0.204,0.669,0.204,1.023c0,0.355-0.068,0.696-0.204,1.023c-0.136,0.328-0.329,0.617-0.58,0.868
	c-0.251,0.25-0.54,0.444-0.868,0.58c-0.328,0.136-0.669,0.204-1.024,0.204c-0.355,0-0.696-0.068-1.024-0.204
	c-0.328-0.136-0.617-0.329-0.868-0.58c-0.251-0.251-0.444-0.54-0.58-0.868C7.568,41.431,7.5,41.09,7.5,40.735
	c0-0.354,0.068-0.696,0.203-1.023s0.329-0.617,0.58-0.868c0.251-0.251,0.54-0.444,0.868-0.58C9.479,38.128,9.82,38.06,10.175,38.06z
	"/>
<path fill="#F9B544" d="M24.633,38.06c0.355,0,0.696,0.068,1.024,0.204c0.328,0.136,0.617,0.329,0.868,0.58
	c0.251,0.25,0.444,0.54,0.58,0.868s0.204,0.669,0.204,1.023c0,0.355-0.068,0.696-0.204,1.023c-0.136,0.328-0.329,0.617-0.58,0.868
	c-0.251,0.25-0.54,0.444-0.868,0.58c-0.328,0.136-0.669,0.204-1.024,0.204c-0.355,0-0.696-0.068-1.024-0.204
	c-0.328-0.136-0.617-0.329-0.868-0.58c-0.251-0.251-0.444-0.54-0.58-0.868c-0.136-0.328-0.203-0.668-0.203-1.023
	c0-0.354,0.068-0.696,0.203-1.023s0.329-0.617,0.58-0.868c0.251-0.251,0.54-0.444,0.868-0.58
	C23.937,38.128,24.278,38.06,24.633,38.06z"/>
<path fill="#F9B544" d="M39.09,38.06c0.355,0,0.696,0.068,1.024,0.204c0.328,0.136,0.617,0.329,0.868,0.58
	c0.251,0.25,0.444,0.54,0.58,0.868s0.204,0.669,0.204,1.023c0,0.355-0.068,0.696-0.204,1.023c-0.136,0.328-0.329,0.617-0.58,0.868
	c-0.251,0.25-0.54,0.444-0.868,0.58c-0.328,0.136-0.669,0.204-1.024,0.204c-0.355,0-0.696-0.068-1.024-0.204
	c-0.328-0.136-0.617-0.329-0.868-0.58c-0.251-0.251-0.444-0.54-0.58-0.868c-0.136-0.328-0.203-0.668-0.203-1.023
	c0-0.354,0.068-0.696,0.203-1.023s0.329-0.617,0.58-0.868c0.251-0.251,0.54-0.444,0.868-0.58
	C38.395,38.128,38.736,38.06,39.09,38.06z"/>
<path fill="#F9B544" d="M53.548,38.06c0.355,0,0.696,0.068,1.024,0.204c0.328,0.136,0.617,0.329,0.868,0.58
	c0.251,0.25,0.444,0.54,0.58,0.868s0.204,0.669,0.204,1.023c0,0.355-0.068,0.696-0.204,1.023c-0.136,0.328-0.329,0.617-0.58,0.868
	c-0.251,0.25-0.54,0.444-0.868,0.58c-0.328,0.136-0.669,0.204-1.024,0.204c-0.355,0-0.696-0.068-1.024-0.204
	c-0.328-0.136-0.617-0.329-0.868-0.58c-0.251-0.251-0.444-0.54-0.58-0.868c-0.136-0.328-0.203-0.668-0.203-1.023
	c0-0.354,0.068-0.696,0.203-1.023s0.329-0.617,0.58-0.868c0.251-0.251,0.54-0.444,0.868-0.58
	C52.852,38.128,53.193,38.06,53.548,38.06z"/>
<path fill="#F9B544" d="M68.006,38.06c0.355,0,0.696,0.068,1.024,0.204c0.328,0.136,0.617,0.329,0.868,0.58
	c0.251,0.25,0.444,0.54,0.58,0.868s0.204,0.669,0.204,1.023c0,0.355-0.068,0.696-0.204,1.023c-0.136,0.328-0.329,0.617-0.58,0.868
	c-0.251,0.25-0.54,0.444-0.868,0.58c-0.328,0.136-0.669,0.204-1.024,0.204c-0.355,0-0.696-0.068-1.024-0.204
	c-0.328-0.136-0.617-0.329-0.868-0.58c-0.251-0.251-0.444-0.54-0.58-0.868c-0.136-0.328-0.203-0.668-0.203-1.023
	c0-0.354,0.068-0.696,0.203-1.023s0.329-0.617,0.58-0.868c0.251-0.251,0.54-0.444,0.868-0.58
	C67.31,38.128,67.651,38.06,68.006,38.06z"/>
<path fill="#F9B544" d="M82.464,38.06c0.355,0,0.696,0.068,1.024,0.204c0.328,0.136,0.617,0.329,0.868,0.58
	c0.251,0.25,0.444,0.54,0.58,0.868s0.204,0.669,0.204,1.023c0,0.355-0.068,0.696-0.204,1.023c-0.136,0.328-0.329,0.617-0.58,0.868
	c-0.251,0.25-0.54,0.444-0.868,0.58c-0.328,0.136-0.669,0.204-1.024,0.204c-0.355,0-0.696-0.068-1.024-0.204
	c-0.328-0.136-0.617-0.329-0.868-0.58c-0.251-0.251-0.444-0.54-0.58-0.868c-0.136-0.328-0.203-0.668-0.203-1.023
	c0-0.354,0.068-0.696,0.203-1.023s0.329-0.617,0.58-0.868c0.251-0.251,0.54-0.444,0.868-0.58
	C81.768,38.128,82.109,38.06,82.464,38.06z"/>
<path fill="#F9B544" d="M96.922,38.06c0.355,0,0.696,0.068,1.024,0.204c0.328,0.136,0.617,0.329,0.868,0.58
	c0.251,0.25,0.444,0.54,0.58,0.868s0.204,0.669,0.204,1.023c0,0.355-0.068,0.696-0.204,1.023c-0.136,0.328-0.329,0.617-0.58,0.868
	c-0.251,0.25-0.54,0.444-0.868,0.58c-0.328,0.136-0.669,0.204-1.024,0.204c-0.355,0-0.696-0.068-1.024-0.204
	c-0.328-0.136-0.617-0.329-0.868-0.58c-0.251-0.251-0.444-0.54-0.58-0.868c-0.136-0.328-0.203-0.668-0.203-1.023
	c0-0.354,0.068-0.696,0.203-1.023s0.329-0.617,0.58-0.868c0.251-0.251,0.54-0.444,0.868-0.58
	C96.226,38.128,96.567,38.06,96.922,38.06z"/>
<path fill="#F9B544" d="M111.38,38.06c0.355,0,0.696,0.068,1.024,0.204c0.328,0.136,0.617,0.329,0.868,0.58
	c0.251,0.25,0.444,0.54,0.58,0.868s0.204,0.669,0.204,1.023c0,0.355-0.068,0.696-0.204,1.023c-0.136,0.328-0.329,0.617-0.58,0.868
	c-0.251,0.25-0.54,0.444-0.868,0.58c-0.328,0.136-0.669,0.204-1.024,0.204c-0.355,0-0.696-0.068-1.024-0.204
	c-0.328-0.136-0.617-0.329-0.868-0.58c-0.251-0.251-0.444-0.54-0.58-0.868c-0.136-0.328-0.203-0.668-0.203-1.023
	c0-0.354,0.068-0.696,0.203-1.023s0.329-0.617,0.58-0.868c0.251-0.251,0.54-0.444,0.868-0.58
	C110.684,38.128,111.025,38.06,111.38,38.06z"/>
<path fill="#F9B544" d="M125.837,38.06c0.355,0,0.696,0.068,1.024,0.204c0.328,0.136,0.617,0.329,0.868,0.58
	c0.251,0.25,0.444,0.54,0.58,0.868s0.204,0.669,0.204,1.023c0,0.355-0.068,0.696-0.204,1.023c-0.136,0.328-0.329,0.617-0.58,0.868
	c-0.251,0.25-0.54,0.444-0.868,0.58c-0.328,0.136-0.669,0.204-1.024,0.204c-0.355,0-0.696-0.068-1.024-0.204
	c-0.328-0.136-0.617-0.329-0.868-0.58c-0.251-0.251-0.444-0.54-0.58-0.868c-0.136-0.328-0.203-0.668-0.203-1.023
	c0-0.354,0.068-0.696,0.203-1.023s0.329-0.617,0.58-0.868c0.251-0.251,0.54-0.444,0.868-0.58
	C125.141,38.128,125.483,38.06,125.837,38.06z"/>
<path fill="#F9B544" d="M140.295,38.06c0.355,0,0.696,0.068,1.024,0.204c0.328,0.136,0.617,0.329,0.868,0.58
	c0.251,0.25,0.444,0.54,0.58,0.868s0.204,0.669,0.204,1.023c0,0.355-0.068,0.696-0.204,1.023c-0.136,0.328-0.329,0.617-0.58,0.868
	c-0.251,0.25-0.54,0.444-0.868,0.58c-0.328,0.136-0.669,0.204-1.024,0.204c-0.355,0-0.696-0.068-1.024-0.204
	c-0.328-0.136-0.617-0.329-0.868-0.58c-0.251-0.251-0.444-0.54-0.58-0.868c-0.136-0.328-0.203-0.668-0.203-1.023
	c0-0.354,0.068-0.696,0.203-1.023s0.329-0.617,0.58-0.868c0.251-0.251,0.54-0.444,0.868-0.58
	C139.599,38.128,139.941,38.06,140.295,38.06z"/>
<path fill="#F9B544" d="M10.175,52.59c0.355,0,0.696,0.068,1.024,0.204c0.328,0.136,0.617,0.329,0.868,0.58
	c0.251,0.25,0.444,0.54,0.58,0.868s0.204,0.668,0.204,1.023c0,0.354-0.068,0.696-0.204,1.023s-0.329,0.617-0.58,0.868
	c-0.251,0.251-0.54,0.444-0.868,0.58c-0.328,0.136-0.669,0.204-1.024,0.204c-0.355,0-0.696-0.068-1.024-0.204
	c-0.328-0.136-0.617-0.329-0.868-0.58c-0.251-0.25-0.444-0.54-0.58-0.868S7.5,55.62,7.5,55.265c0-0.355,0.068-0.696,0.203-1.023
	s0.329-0.617,0.58-0.868c0.251-0.251,0.54-0.444,0.868-0.58C9.479,52.658,9.82,52.59,10.175,52.59z"/>
<path fill="#F9B544" d="M24.633,52.59c0.355,0,0.696,0.068,1.024,0.204c0.328,0.136,0.617,0.329,0.868,0.58
	c0.251,0.25,0.444,0.54,0.58,0.868s0.204,0.668,0.204,1.023c0,0.354-0.068,0.696-0.204,1.023s-0.329,0.617-0.58,0.868
	c-0.251,0.251-0.54,0.444-0.868,0.58c-0.328,0.136-0.669,0.204-1.024,0.204c-0.355,0-0.696-0.068-1.024-0.204
	c-0.328-0.136-0.617-0.329-0.868-0.58c-0.251-0.25-0.444-0.54-0.58-0.868s-0.203-0.669-0.203-1.023c0-0.355,0.068-0.696,0.203-1.023
	s0.329-0.617,0.58-0.868c0.251-0.251,0.54-0.444,0.868-0.58C23.937,52.658,24.278,52.59,24.633,52.59z"/>
<path fill="#F9B544" d="M39.09,52.59c0.355,0,0.696,0.068,1.024,0.204c0.328,0.136,0.617,0.329,0.868,0.58
	c0.251,0.25,0.444,0.54,0.58,0.868s0.204,0.668,0.204,1.023c0,0.354-0.068,0.696-0.204,1.023s-0.329,0.617-0.58,0.868
	c-0.251,0.251-0.54,0.444-0.868,0.58c-0.328,0.136-0.669,0.204-1.024,0.204c-0.355,0-0.696-0.068-1.024-0.204
	c-0.328-0.136-0.617-0.329-0.868-0.58c-0.251-0.25-0.444-0.54-0.58-0.868s-0.203-0.669-0.203-1.023c0-0.355,0.068-0.696,0.203-1.023
	s0.329-0.617,0.58-0.868c0.251-0.251,0.54-0.444,0.868-0.58C38.395,52.658,38.736,52.59,39.09,52.59z"/>
<path fill="#F9B544" d="M53.548,52.59c0.355,0,0.696,0.068,1.024,0.204c0.328,0.136,0.617,0.329,0.868,0.58
	c0.251,0.25,0.444,0.54,0.58,0.868s0.204,0.668,0.204,1.023c0,0.354-0.068,0.696-0.204,1.023s-0.329,0.617-0.58,0.868
	c-0.251,0.251-0.54,0.444-0.868,0.58c-0.328,0.136-0.669,0.204-1.024,0.204c-0.355,0-0.696-0.068-1.024-0.204
	c-0.328-0.136-0.617-0.329-0.868-0.58c-0.251-0.25-0.444-0.54-0.58-0.868s-0.203-0.669-0.203-1.023c0-0.355,0.068-0.696,0.203-1.023
	s0.329-0.617,0.58-0.868c0.251-0.251,0.54-0.444,0.868-0.58C52.852,52.658,53.193,52.59,53.548,52.59z"/>
<path fill="#F9B544" d="M68.006,52.59c0.355,0,0.696,0.068,1.024,0.204c0.328,0.136,0.617,0.329,0.868,0.58
	c0.251,0.25,0.444,0.54,0.58,0.868s0.204,0.668,0.204,1.023c0,0.354-0.068,0.696-0.204,1.023s-0.329,0.617-0.58,0.868
	c-0.251,0.251-0.54,0.444-0.868,0.58c-0.328,0.136-0.669,0.204-1.024,0.204c-0.355,0-0.696-0.068-1.024-0.204
	c-0.328-0.136-0.617-0.329-0.868-0.58c-0.251-0.25-0.444-0.54-0.58-0.868s-0.203-0.669-0.203-1.023c0-0.355,0.068-0.696,0.203-1.023
	s0.329-0.617,0.58-0.868c0.251-0.251,0.54-0.444,0.868-0.58C67.31,52.658,67.651,52.59,68.006,52.59z"/>
<path fill="#F9B544" d="M82.464,52.59c0.355,0,0.696,0.068,1.024,0.204c0.328,0.136,0.617,0.329,0.868,0.58
	c0.251,0.25,0.444,0.54,0.58,0.868s0.204,0.668,0.204,1.023c0,0.354-0.068,0.696-0.204,1.023s-0.329,0.617-0.58,0.868
	c-0.251,0.251-0.54,0.444-0.868,0.58c-0.328,0.136-0.669,0.204-1.024,0.204c-0.355,0-0.696-0.068-1.024-0.204
	c-0.328-0.136-0.617-0.329-0.868-0.58c-0.251-0.25-0.444-0.54-0.58-0.868s-0.203-0.669-0.203-1.023c0-0.355,0.068-0.696,0.203-1.023
	s0.329-0.617,0.58-0.868c0.251-0.251,0.54-0.444,0.868-0.58C81.768,52.658,82.109,52.59,82.464,52.59z"/>
<path fill="#F9B544" d="M96.922,52.59c0.355,0,0.696,0.068,1.024,0.204c0.328,0.136,0.617,0.329,0.868,0.58
	c0.251,0.25,0.444,0.54,0.58,0.868s0.204,0.668,0.204,1.023c0,0.354-0.068,0.696-0.204,1.023s-0.329,0.617-0.58,0.868
	c-0.251,0.251-0.54,0.444-0.868,0.58c-0.328,0.136-0.669,0.204-1.024,0.204c-0.355,0-0.696-0.068-1.024-0.204
	c-0.328-0.136-0.617-0.329-0.868-0.58c-0.251-0.25-0.444-0.54-0.58-0.868s-0.203-0.669-0.203-1.023c0-0.355,0.068-0.696,0.203-1.023
	s0.329-0.617,0.58-0.868c0.251-0.251,0.54-0.444,0.868-0.58C96.226,52.658,96.567,52.59,96.922,52.59z"/>
<path fill="#F9B544" d="M111.38,52.59c0.355,0,0.696,0.068,1.024,0.204c0.328,0.136,0.617,0.329,0.868,0.58
	c0.251,0.25,0.444,0.54,0.58,0.868s0.204,0.668,0.204,1.023c0,0.354-0.068,0.696-0.204,1.023s-0.329,0.617-0.58,0.868
	c-0.251,0.251-0.54,0.444-0.868,0.58c-0.328,0.136-0.669,0.204-1.024,0.204c-0.355,0-0.696-0.068-1.024-0.204
	c-0.328-0.136-0.617-0.329-0.868-0.58c-0.251-0.25-0.444-0.54-0.58-0.868s-0.203-0.669-0.203-1.023c0-0.355,0.068-0.696,0.203-1.023
	s0.329-0.617,0.58-0.868c0.251-0.251,0.54-0.444,0.868-0.58C110.684,52.658,111.025,52.59,111.38,52.59z"/>
<path fill="#F9B544" d="M125.837,52.59c0.355,0,0.696,0.068,1.024,0.204c0.328,0.136,0.617,0.329,0.868,0.58
	c0.251,0.25,0.444,0.54,0.58,0.868s0.204,0.668,0.204,1.023c0,0.354-0.068,0.696-0.204,1.023s-0.329,0.617-0.58,0.868
	c-0.251,0.251-0.54,0.444-0.868,0.58c-0.328,0.136-0.669,0.204-1.024,0.204c-0.355,0-0.696-0.068-1.024-0.204
	c-0.328-0.136-0.617-0.329-0.868-0.58c-0.251-0.25-0.444-0.54-0.58-0.868s-0.203-0.669-0.203-1.023c0-0.355,0.068-0.696,0.203-1.023
	s0.329-0.617,0.58-0.868c0.251-0.251,0.54-0.444,0.868-0.58C125.141,52.658,125.483,52.59,125.837,52.59z"/>
<path fill="#F9B544" d="M140.295,52.59c0.355,0,0.696,0.068,1.024,0.204c0.328,0.136,0.617,0.329,0.868,0.58
	c0.251,0.25,0.444,0.54,0.58,0.868s0.204,0.668,0.204,1.023c0,0.354-0.068,0.696-0.204,1.023s-0.329,0.617-0.58,0.868
	c-0.251,0.251-0.54,0.444-0.868,0.58c-0.328,0.136-0.669,0.204-1.024,0.204c-0.355,0-0.696-0.068-1.024-0.204
	c-0.328-0.136-0.617-0.329-0.868-0.58c-0.251-0.25-0.444-0.54-0.58-0.868s-0.203-0.669-0.203-1.023c0-0.355,0.068-0.696,0.203-1.023
	s0.329-0.617,0.58-0.868c0.251-0.251,0.54-0.444,0.868-0.58C139.599,52.658,139.941,52.59,140.295,52.59z"/>
<path fill="#F9B544" d="M10.175,67.121c0.355,0,0.696,0.068,1.024,0.204c0.328,0.136,0.617,0.329,0.868,0.58
	c0.251,0.251,0.444,0.54,0.58,0.868s0.204,0.669,0.204,1.024c0,0.354-0.068,0.696-0.204,1.023s-0.329,0.617-0.58,0.868
	c-0.251,0.251-0.54,0.444-0.868,0.58c-0.328,0.136-0.669,0.204-1.024,0.204c-0.355,0-0.696-0.068-1.024-0.204
	c-0.328-0.136-0.617-0.329-0.868-0.58c-0.251-0.251-0.444-0.54-0.58-0.868S7.5,70.15,7.5,69.795c0-0.355,0.068-0.696,0.203-1.024
	s0.329-0.617,0.58-0.868c0.251-0.25,0.54-0.444,0.868-0.58C9.479,67.188,9.82,67.121,10.175,67.121z"/>
<path fill="#F9B544" d="M24.633,67.121c0.355,0,0.696,0.068,1.024,0.204c0.328,0.136,0.617,0.329,0.868,0.58
	c0.251,0.251,0.444,0.54,0.58,0.868s0.204,0.669,0.204,1.024c0,0.354-0.068,0.696-0.204,1.023s-0.329,0.617-0.58,0.868
	c-0.251,0.251-0.54,0.444-0.868,0.58c-0.328,0.136-0.669,0.204-1.024,0.204c-0.355,0-0.696-0.068-1.024-0.204
	c-0.328-0.136-0.617-0.329-0.868-0.58c-0.251-0.251-0.444-0.54-0.58-0.868s-0.203-0.669-0.203-1.023
	c0-0.355,0.068-0.696,0.203-1.024s0.329-0.617,0.58-0.868c0.251-0.25,0.54-0.444,0.868-0.58
	C23.937,67.188,24.278,67.121,24.633,67.121z"/>
<path fill="#F9B544" d="M39.09,67.121c0.355,0,0.696,0.068,1.024,0.204c0.328,0.136,0.617,0.329,0.868,0.58
	c0.251,0.251,0.444,0.54,0.58,0.868s0.204,0.669,0.204,1.024c0,0.354-0.068,0.696-0.204,1.023s-0.329,0.617-0.58,0.868
	c-0.251,0.251-0.54,0.444-0.868,0.58c-0.328,0.136-0.669,0.204-1.024,0.204c-0.355,0-0.696-0.068-1.024-0.204
	c-0.328-0.136-0.617-0.329-0.868-0.58c-0.251-0.251-0.444-0.54-0.58-0.868s-0.203-0.669-0.203-1.023
	c0-0.355,0.068-0.696,0.203-1.024s0.329-0.617,0.58-0.868c0.251-0.25,0.54-0.444,0.868-0.58
	C38.395,67.188,38.736,67.121,39.09,67.121z"/>
<path fill="#F9B544" d="M53.548,67.121c0.355,0,0.696,0.068,1.024,0.204c0.328,0.136,0.617,0.329,0.868,0.58
	c0.251,0.251,0.444,0.54,0.58,0.868s0.204,0.669,0.204,1.024c0,0.354-0.068,0.696-0.204,1.023s-0.329,0.617-0.58,0.868
	c-0.251,0.251-0.54,0.444-0.868,0.58c-0.328,0.136-0.669,0.204-1.024,0.204c-0.355,0-0.696-0.068-1.024-0.204
	c-0.328-0.136-0.617-0.329-0.868-0.58c-0.251-0.251-0.444-0.54-0.58-0.868s-0.203-0.669-0.203-1.023
	c0-0.355,0.068-0.696,0.203-1.024s0.329-0.617,0.58-0.868c0.251-0.25,0.54-0.444,0.868-0.58
	C52.852,67.188,53.193,67.121,53.548,67.121z"/>
<path fill="#F9B544" d="M68.006,67.121c0.355,0,0.696,0.068,1.024,0.204c0.328,0.136,0.617,0.329,0.868,0.58
	c0.251,0.251,0.444,0.54,0.58,0.868s0.204,0.669,0.204,1.024c0,0.354-0.068,0.696-0.204,1.023s-0.329,0.617-0.58,0.868
	c-0.251,0.251-0.54,0.444-0.868,0.58c-0.328,0.136-0.669,0.204-1.024,0.204c-0.355,0-0.696-0.068-1.024-0.204
	c-0.328-0.136-0.617-0.329-0.868-0.58c-0.251-0.251-0.444-0.54-0.58-0.868s-0.203-0.669-0.203-1.023
	c0-0.355,0.068-0.696,0.203-1.024s0.329-0.617,0.58-0.868c0.251-0.25,0.54-0.444,0.868-0.58
	C67.31,67.188,67.651,67.121,68.006,67.121z"/>
<path fill="#F9B544" d="M82.464,67.121c0.355,0,0.696,0.068,1.024,0.204c0.328,0.136,0.617,0.329,0.868,0.58
	c0.251,0.251,0.444,0.54,0.58,0.868s0.204,0.669,0.204,1.024c0,0.354-0.068,0.696-0.204,1.023s-0.329,0.617-0.58,0.868
	c-0.251,0.251-0.54,0.444-0.868,0.58c-0.328,0.136-0.669,0.204-1.024,0.204c-0.355,0-0.696-0.068-1.024-0.204
	c-0.328-0.136-0.617-0.329-0.868-0.58c-0.251-0.251-0.444-0.54-0.58-0.868s-0.203-0.669-0.203-1.023
	c0-0.355,0.068-0.696,0.203-1.024s0.329-0.617,0.58-0.868c0.251-0.25,0.54-0.444,0.868-0.58
	C81.768,67.188,82.109,67.121,82.464,67.121z"/>
<path fill="#F9B544" d="M96.922,67.121c0.355,0,0.696,0.068,1.024,0.204c0.328,0.136,0.617,0.329,0.868,0.58
	c0.251,0.251,0.444,0.54,0.58,0.868s0.204,0.669,0.204,1.024c0,0.354-0.068,0.696-0.204,1.023s-0.329,0.617-0.58,0.868
	c-0.251,0.251-0.54,0.444-0.868,0.58c-0.328,0.136-0.669,0.204-1.024,0.204c-0.355,0-0.696-0.068-1.024-0.204
	c-0.328-0.136-0.617-0.329-0.868-0.58c-0.251-0.251-0.444-0.54-0.58-0.868s-0.203-0.669-0.203-1.023
	c0-0.355,0.068-0.696,0.203-1.024s0.329-0.617,0.58-0.868c0.251-0.25,0.54-0.444,0.868-0.58
	C96.226,67.188,96.567,67.121,96.922,67.121z"/>
<path fill="#F9B544" d="M111.38,67.121c0.355,0,0.696,0.068,1.024,0.204c0.328,0.136,0.617,0.329,0.868,0.58
	c0.251,0.251,0.444,0.54,0.58,0.868s0.204,0.669,0.204,1.024c0,0.354-0.068,0.696-0.204,1.023s-0.329,0.617-0.58,0.868
	c-0.251,0.251-0.54,0.444-0.868,0.58c-0.328,0.136-0.669,0.204-1.024,0.204c-0.355,0-0.696-0.068-1.024-0.204
	c-0.328-0.136-0.617-0.329-0.868-0.58c-0.251-0.251-0.444-0.54-0.58-0.868s-0.203-0.669-0.203-1.023
	c0-0.355,0.068-0.696,0.203-1.024s0.329-0.617,0.58-0.868c0.251-0.25,0.54-0.444,0.868-0.58
	C110.684,67.188,111.025,67.121,111.38,67.121z"/>
<path fill="#F9B544" d="M125.837,67.121c0.355,0,0.696,0.068,1.024,0.204c0.328,0.136,0.617,0.329,0.868,0.58
	c0.251,0.251,0.444,0.54,0.58,0.868s0.204,0.669,0.204,1.024c0,0.354-0.068,0.696-0.204,1.023s-0.329,0.617-0.58,0.868
	c-0.251,0.251-0.54,0.444-0.868,0.58c-0.328,0.136-0.669,0.204-1.024,0.204c-0.355,0-0.696-0.068-1.024-0.204
	c-0.328-0.136-0.617-0.329-0.868-0.58c-0.251-0.251-0.444-0.54-0.58-0.868s-0.203-0.669-0.203-1.023
	c0-0.355,0.068-0.696,0.203-1.024s0.329-0.617,0.58-0.868c0.251-0.25,0.54-0.444,0.868-0.58
	C125.141,67.188,125.483,67.121,125.837,67.121z"/>
<path fill="#F9B544" d="M140.295,67.121c0.355,0,0.696,0.068,1.024,0.204c0.328,0.136,0.617,0.329,0.868,0.58
	c0.251,0.251,0.444,0.54,0.58,0.868s0.204,0.669,0.204,1.024c0,0.354-0.068,0.696-0.204,1.023s-0.329,0.617-0.58,0.868
	c-0.251,0.251-0.54,0.444-0.868,0.58c-0.328,0.136-0.669,0.204-1.024,0.204c-0.355,0-0.696-0.068-1.024-0.204
	c-0.328-0.136-0.617-0.329-0.868-0.58c-0.251-0.251-0.444-0.54-0.58-0.868s-0.203-0.669-0.203-1.023
	c0-0.355,0.068-0.696,0.203-1.024s0.329-0.617,0.58-0.868c0.251-0.25,0.54-0.444,0.868-0.58
	C139.599,67.188,139.941,67.121,140.295,67.121z"/>
<path fill="#F9B544" d="M10.175,81.65c0.355,0,0.696,0.068,1.024,0.204c0.328,0.136,0.617,0.329,0.868,0.58
	c0.251,0.25,0.444,0.54,0.58,0.868s0.204,0.669,0.204,1.023c0,0.355-0.068,0.696-0.204,1.023c-0.136,0.328-0.329,0.617-0.58,0.868
	c-0.251,0.25-0.54,0.444-0.868,0.58C10.87,86.932,10.529,87,10.175,87c-0.355,0-0.696-0.068-1.024-0.204
	c-0.328-0.136-0.617-0.329-0.868-0.58c-0.251-0.251-0.444-0.54-0.58-0.868C7.568,85.021,7.5,84.68,7.5,84.325
	c0-0.354,0.068-0.696,0.203-1.023s0.329-0.617,0.58-0.868c0.251-0.251,0.54-0.444,0.868-0.58C9.479,81.718,9.82,81.65,10.175,81.65z
	"/>
<path fill="#F9B544" d="M24.633,81.65c0.355,0,0.696,0.068,1.024,0.204c0.328,0.136,0.617,0.329,0.868,0.58
	c0.251,0.25,0.444,0.54,0.58,0.868s0.204,0.669,0.204,1.023c0,0.355-0.068,0.696-0.204,1.023c-0.136,0.328-0.329,0.617-0.58,0.868
	c-0.251,0.25-0.54,0.444-0.868,0.58C25.328,86.932,24.987,87,24.633,87c-0.355,0-0.696-0.068-1.024-0.204
	c-0.328-0.136-0.617-0.329-0.868-0.58c-0.251-0.251-0.444-0.54-0.58-0.868c-0.136-0.328-0.203-0.668-0.203-1.023
	c0-0.354,0.068-0.696,0.203-1.023s0.329-0.617,0.58-0.868c0.251-0.251,0.54-0.444,0.868-0.58
	C23.937,81.718,24.278,81.65,24.633,81.65z"/>
<path fill="#F9B544" d="M39.09,81.65c0.355,0,0.696,0.068,1.024,0.204c0.328,0.136,0.617,0.329,0.868,0.58
	c0.251,0.25,0.444,0.54,0.58,0.868s0.204,0.669,0.204,1.023c0,0.355-0.068,0.696-0.204,1.023c-0.136,0.328-0.329,0.617-0.58,0.868
	c-0.251,0.25-0.54,0.444-0.868,0.58C39.786,86.932,39.445,87,39.09,87c-0.355,0-0.696-0.068-1.024-0.204
	c-0.328-0.136-0.617-0.329-0.868-0.58c-0.251-0.251-0.444-0.54-0.58-0.868c-0.136-0.328-0.203-0.668-0.203-1.023
	c0-0.354,0.068-0.696,0.203-1.023s0.329-0.617,0.58-0.868c0.251-0.251,0.54-0.444,0.868-0.58
	C38.395,81.718,38.736,81.65,39.09,81.65z"/>
<path fill="#F9B544" d="M53.548,81.65c0.355,0,0.696,0.068,1.024,0.204c0.328,0.136,0.617,0.329,0.868,0.58
	c0.251,0.25,0.444,0.54,0.58,0.868s0.204,0.669,0.204,1.023c0,0.355-0.068,0.696-0.204,1.023c-0.136,0.328-0.329,0.617-0.58,0.868
	c-0.251,0.25-0.54,0.444-0.868,0.58C54.244,86.932,53.903,87,53.548,87c-0.355,0-0.696-0.068-1.024-0.204
	c-0.328-0.136-0.617-0.329-0.868-0.58c-0.251-0.251-0.444-0.54-0.58-0.868c-0.136-0.328-0.203-0.668-0.203-1.023
	c0-0.354,0.068-0.696,0.203-1.023s0.329-0.617,0.58-0.868c0.251-0.251,0.54-0.444,0.868-0.58
	C52.852,81.718,53.193,81.65,53.548,81.65z"/>
<path fill="#F9B544" d="M68.006,81.65c0.355,0,0.696,0.068,1.024,0.204c0.328,0.136,0.617,0.329,0.868,0.58
	c0.251,0.25,0.444,0.54,0.58,0.868s0.204,0.669,0.204,1.023c0,0.355-0.068,0.696-0.204,1.023c-0.136,0.328-0.329,0.617-0.58,0.868
	c-0.251,0.25-0.54,0.444-0.868,0.58C68.702,86.932,68.361,87,68.006,87c-0.355,0-0.696-0.068-1.024-0.204
	c-0.328-0.136-0.617-0.329-0.868-0.58c-0.251-0.251-0.444-0.54-0.58-0.868c-0.136-0.328-0.203-0.668-0.203-1.023
	c0-0.354,0.068-0.696,0.203-1.023s0.329-0.617,0.58-0.868c0.251-0.251,0.54-0.444,0.868-0.58
	C67.31,81.718,67.651,81.65,68.006,81.65z"/>
<path fill="#F9B544" d="M82.464,81.65c0.355,0,0.696,0.068,1.024,0.204c0.328,0.136,0.617,0.329,0.868,0.58
	c0.251,0.25,0.444,0.54,0.58,0.868s0.204,0.669,0.204,1.023c0,0.355-0.068,0.696-0.204,1.023c-0.136,0.328-0.329,0.617-0.58,0.868
	c-0.251,0.25-0.54,0.444-0.868,0.58C83.16,86.932,82.819,87,82.464,87c-0.355,0-0.696-0.068-1.024-0.204
	c-0.328-0.136-0.617-0.329-0.868-0.58c-0.251-0.251-0.444-0.54-0.58-0.868c-0.136-0.328-0.203-0.668-0.203-1.023
	c0-0.354,0.068-0.696,0.203-1.023s0.329-0.617,0.58-0.868c0.251-0.251,0.54-0.444,0.868-0.58
	C81.768,81.718,82.109,81.65,82.464,81.65z"/>
<path fill="#F9B544" d="M96.922,81.65c0.355,0,0.696,0.068,1.024,0.204c0.328,0.136,0.617,0.329,0.868,0.58
	c0.251,0.25,0.444,0.54,0.58,0.868s0.204,0.669,0.204,1.023c0,0.355-0.068,0.696-0.204,1.023c-0.136,0.328-0.329,0.617-0.58,0.868
	c-0.251,0.25-0.54,0.444-0.868,0.58C97.618,86.932,97.276,87,96.922,87c-0.355,0-0.696-0.068-1.024-0.204
	c-0.328-0.136-0.617-0.329-0.868-0.58c-0.251-0.251-0.444-0.54-0.58-0.868c-0.136-0.328-0.203-0.668-0.203-1.023
	c0-0.354,0.068-0.696,0.203-1.023s0.329-0.617,0.58-0.868c0.251-0.251,0.54-0.444,0.868-0.58
	C96.226,81.718,96.567,81.65,96.922,81.65z"/>
<path fill="#F9B544" d="M111.38,81.65c0.355,0,0.696,0.068,1.024,0.204c0.328,0.136,0.617,0.329,0.868,0.58
	c0.251,0.25,0.444,0.54,0.58,0.868s0.204,0.669,0.204,1.023c0,0.355-0.068,0.696-0.204,1.023c-0.136,0.328-0.329,0.617-0.58,0.868
	c-0.251,0.25-0.54,0.444-0.868,0.58C112.075,86.932,111.734,87,111.38,87c-0.355,0-0.696-0.068-1.024-0.204
	c-0.328-0.136-0.617-0.329-0.868-0.58c-0.251-0.251-0.444-0.54-0.58-0.868c-0.136-0.328-0.203-0.668-0.203-1.023
	c0-0.354,0.068-0.696,0.203-1.023s0.329-0.617,0.58-0.868c0.251-0.251,0.54-0.444,0.868-0.58
	C110.684,81.718,111.025,81.65,111.38,81.65z"/>
<path fill="#F9B544" d="M125.837,81.65c0.355,0,0.696,0.068,1.024,0.204c0.328,0.136,0.617,0.329,0.868,0.58
	c0.251,0.25,0.444,0.54,0.58,0.868s0.204,0.669,0.204,1.023c0,0.355-0.068,0.696-0.204,1.023c-0.136,0.328-0.329,0.617-0.58,0.868
	c-0.251,0.25-0.54,0.444-0.868,0.58c-0.328,0.136-0.669,0.204-1.024,0.204c-0.355,0-0.696-0.068-1.024-0.204
	c-0.328-0.136-0.617-0.329-0.868-0.58c-0.251-0.251-0.444-0.54-0.58-0.868c-0.136-0.328-0.203-0.668-0.203-1.023
	c0-0.354,0.068-0.696,0.203-1.023s0.329-0.617,0.58-0.868c0.251-0.251,0.54-0.444,0.868-0.58
	C125.141,81.718,125.483,81.65,125.837,81.65z"/>
<path fill="#F9B544" d="M140.295,81.65c0.355,0,0.696,0.068,1.024,0.204c0.328,0.136,0.617,0.329,0.868,0.58
	c0.251,0.25,0.444,0.54,0.58,0.868s0.204,0.669,0.204,1.023c0,0.355-0.068,0.696-0.204,1.023c-0.136,0.328-0.329,0.617-0.58,0.868
	c-0.251,0.25-0.54,0.444-0.868,0.58C140.991,86.932,140.65,87,140.295,87c-0.355,0-0.696-0.068-1.024-0.204
	c-0.328-0.136-0.617-0.329-0.868-0.58c-0.251-0.251-0.444-0.54-0.58-0.868c-0.136-0.328-0.203-0.668-0.203-1.023
	c0-0.354,0.068-0.696,0.203-1.023s0.329-0.617,0.58-0.868c0.251-0.251,0.54-0.444,0.868-0.58
	C139.599,81.718,139.941,81.65,140.295,81.65z"/>
<path fill="#F9B544" d="M10.175,96.181c0.355,0,0.696,0.068,1.024,0.204c0.328,0.136,0.617,0.329,0.868,0.58
	c0.251,0.25,0.444,0.54,0.58,0.868s0.204,0.669,0.204,1.023s-0.068,0.696-0.204,1.023s-0.329,0.617-0.58,0.868
	c-0.251,0.251-0.54,0.444-0.868,0.58c-0.328,0.136-0.669,0.204-1.024,0.204c-0.355,0-0.696-0.068-1.024-0.204
	c-0.328-0.136-0.617-0.329-0.868-0.58c-0.251-0.25-0.444-0.54-0.58-0.868S7.5,99.21,7.5,98.855s0.068-0.696,0.203-1.023
	s0.329-0.617,0.58-0.868c0.251-0.251,0.54-0.444,0.868-0.58C9.479,96.249,9.82,96.181,10.175,96.181z"/>
<path fill="#F9B544" d="M24.633,96.181c0.355,0,0.696,0.068,1.024,0.204c0.328,0.136,0.617,0.329,0.868,0.58
	c0.251,0.25,0.444,0.54,0.58,0.868s0.204,0.669,0.204,1.023s-0.068,0.696-0.204,1.023s-0.329,0.617-0.58,0.868
	c-0.251,0.251-0.54,0.444-0.868,0.58c-0.328,0.136-0.669,0.204-1.024,0.204c-0.355,0-0.696-0.068-1.024-0.204
	c-0.328-0.136-0.617-0.329-0.868-0.58c-0.251-0.25-0.444-0.54-0.58-0.868s-0.203-0.669-0.203-1.023s0.068-0.696,0.203-1.023
	s0.329-0.617,0.58-0.868c0.251-0.251,0.54-0.444,0.868-0.58C23.937,96.249,24.278,96.181,24.633,96.181z"/>
<path fill="#F9B544" d="M39.09,96.181c0.355,0,0.696,0.068,1.024,0.204c0.328,0.136,0.617,0.329,0.868,0.58
	c0.251,0.25,0.444,0.54,0.58,0.868s0.204,0.669,0.204,1.023s-0.068,0.696-0.204,1.023s-0.329,0.617-0.58,0.868
	c-0.251,0.251-0.54,0.444-0.868,0.58c-0.328,0.136-0.669,0.204-1.024,0.204c-0.355,0-0.696-0.068-1.024-0.204
	c-0.328-0.136-0.617-0.329-0.868-0.58c-0.251-0.25-0.444-0.54-0.58-0.868s-0.203-0.669-0.203-1.023s0.068-0.696,0.203-1.023
	s0.329-0.617,0.58-0.868c0.251-0.251,0.54-0.444,0.868-0.58C38.395,96.249,38.736,96.181,39.09,96.181z"/>
<path fill="#F9B544" d="M53.548,96.181c0.355,0,0.696,0.068,1.024,0.204c0.328,0.136,0.617,0.329,0.868,0.58
	c0.251,0.25,0.444,0.54,0.58,0.868s0.204,0.669,0.204,1.023s-0.068,0.696-0.204,1.023s-0.329,0.617-0.58,0.868
	c-0.251,0.251-0.54,0.444-0.868,0.58c-0.328,0.136-0.669,0.204-1.024,0.204c-0.355,0-0.696-0.068-1.024-0.204
	c-0.328-0.136-0.617-0.329-0.868-0.58c-0.251-0.25-0.444-0.54-0.58-0.868s-0.203-0.669-0.203-1.023s0.068-0.696,0.203-1.023
	s0.329-0.617,0.58-0.868c0.251-0.251,0.54-0.444,0.868-0.58C52.852,96.249,53.193,96.181,53.548,96.181z"/>
<path fill="#F9B544" d="M68.006,96.181c0.355,0,0.696,0.068,1.024,0.204c0.328,0.136,0.617,0.329,0.868,0.58
	c0.251,0.25,0.444,0.54,0.58,0.868s0.204,0.669,0.204,1.023s-0.068,0.696-0.204,1.023s-0.329,0.617-0.58,0.868
	c-0.251,0.251-0.54,0.444-0.868,0.58c-0.328,0.136-0.669,0.204-1.024,0.204c-0.355,0-0.696-0.068-1.024-0.204
	c-0.328-0.136-0.617-0.329-0.868-0.58c-0.251-0.25-0.444-0.54-0.58-0.868s-0.203-0.669-0.203-1.023s0.068-0.696,0.203-1.023
	s0.329-0.617,0.58-0.868c0.251-0.251,0.54-0.444,0.868-0.58C67.31,96.249,67.651,96.181,68.006,96.181z"/>
<path fill="#F9B544" d="M82.464,96.181c0.355,0,0.696,0.068,1.024,0.204c0.328,0.136,0.617,0.329,0.868,0.58
	c0.251,0.25,0.444,0.54,0.58,0.868s0.204,0.669,0.204,1.023s-0.068,0.696-0.204,1.023s-0.329,0.617-0.58,0.868
	c-0.251,0.251-0.54,0.444-0.868,0.58c-0.328,0.136-0.669,0.204-1.024,0.204c-0.355,0-0.696-0.068-1.024-0.204
	c-0.328-0.136-0.617-0.329-0.868-0.58c-0.251-0.25-0.444-0.54-0.58-0.868s-0.203-0.669-0.203-1.023s0.068-0.696,0.203-1.023
	s0.329-0.617,0.58-0.868c0.251-0.251,0.54-0.444,0.868-0.58C81.768,96.249,82.109,96.181,82.464,96.181z"/>
<path fill="#F9B544" d="M96.922,96.181c0.355,0,0.696,0.068,1.024,0.204c0.328,0.136,0.617,0.329,0.868,0.58
	c0.251,0.25,0.444,0.54,0.58,0.868s0.204,0.669,0.204,1.023s-0.068,0.696-0.204,1.023s-0.329,0.617-0.58,0.868
	c-0.251,0.251-0.54,0.444-0.868,0.58c-0.328,0.136-0.669,0.204-1.024,0.204c-0.355,0-0.696-0.068-1.024-0.204
	c-0.328-0.136-0.617-0.329-0.868-0.58c-0.251-0.25-0.444-0.54-0.58-0.868s-0.203-0.669-0.203-1.023s0.068-0.696,0.203-1.023
	s0.329-0.617,0.58-0.868c0.251-0.251,0.54-0.444,0.868-0.58C96.226,96.249,96.567,96.181,96.922,96.181z"/>
<path fill="#F9B544" d="M111.38,96.181c0.355,0,0.696,0.068,1.024,0.204c0.328,0.136,0.617,0.329,0.868,0.58
	c0.251,0.25,0.444,0.54,0.58,0.868s0.204,0.669,0.204,1.023s-0.068,0.696-0.204,1.023s-0.329,0.617-0.58,0.868
	c-0.251,0.251-0.54,0.444-0.868,0.58c-0.328,0.136-0.669,0.204-1.024,0.204c-0.355,0-0.696-0.068-1.024-0.204
	c-0.328-0.136-0.617-0.329-0.868-0.58c-0.251-0.25-0.444-0.54-0.58-0.868s-0.203-0.669-0.203-1.023s0.068-0.696,0.203-1.023
	s0.329-0.617,0.58-0.868c0.251-0.251,0.54-0.444,0.868-0.58C110.684,96.249,111.025,96.181,111.38,96.181z"/>
<path fill="#F9B544" d="M125.837,96.181c0.355,0,0.696,0.068,1.024,0.204c0.328,0.136,0.617,0.329,0.868,0.58
	c0.251,0.25,0.444,0.54,0.58,0.868s0.204,0.669,0.204,1.023s-0.068,0.696-0.204,1.023s-0.329,0.617-0.58,0.868
	c-0.251,0.251-0.54,0.444-0.868,0.58c-0.328,0.136-0.669,0.204-1.024,0.204c-0.355,0-0.696-0.068-1.024-0.204
	c-0.328-0.136-0.617-0.329-0.868-0.58c-0.251-0.25-0.444-0.54-0.58-0.868s-0.203-0.669-0.203-1.023s0.068-0.696,0.203-1.023
	s0.329-0.617,0.58-0.868c0.251-0.251,0.54-0.444,0.868-0.58C125.141,96.249,125.483,96.181,125.837,96.181z"/>
<path fill="#F9B544" d="M140.295,96.181c0.355,0,0.696,0.068,1.024,0.204c0.328,0.136,0.617,0.329,0.868,0.58
	c0.251,0.25,0.444,0.54,0.58,0.868s0.204,0.669,0.204,1.023s-0.068,0.696-0.204,1.023s-0.329,0.617-0.58,0.868
	c-0.251,0.251-0.54,0.444-0.868,0.58c-0.328,0.136-0.669,0.204-1.024,0.204c-0.355,0-0.696-0.068-1.024-0.204
	c-0.328-0.136-0.617-0.329-0.868-0.58c-0.251-0.25-0.444-0.54-0.58-0.868s-0.203-0.669-0.203-1.023s0.068-0.696,0.203-1.023
	s0.329-0.617,0.58-0.868c0.251-0.251,0.54-0.444,0.868-0.58C139.599,96.249,139.941,96.181,140.295,96.181z"/>
<path fill="#F9B544" d="M10.175,110.711c0.355,0,0.696,0.068,1.024,0.204c0.328,0.136,0.617,0.329,0.868,0.58
	c0.251,0.251,0.444,0.54,0.58,0.868s0.204,0.669,0.204,1.024c0,0.354-0.068,0.696-0.204,1.023s-0.329,0.617-0.58,0.868
	c-0.251,0.251-0.54,0.444-0.868,0.58c-0.328,0.136-0.669,0.204-1.024,0.204c-0.355,0-0.696-0.068-1.024-0.204
	c-0.328-0.136-0.617-0.329-0.868-0.58c-0.251-0.251-0.444-0.54-0.58-0.868S7.5,113.74,7.5,113.386c0-0.355,0.068-0.696,0.203-1.024
	s0.329-0.617,0.58-0.868c0.251-0.25,0.54-0.444,0.868-0.58C9.479,110.779,9.82,110.711,10.175,110.711z"/>
<path fill="#F9B544" d="M24.633,110.711c0.355,0,0.696,0.068,1.024,0.204c0.328,0.136,0.617,0.329,0.868,0.58
	c0.251,0.251,0.444,0.54,0.58,0.868s0.204,0.669,0.204,1.024c0,0.354-0.068,0.696-0.204,1.023s-0.329,0.617-0.58,0.868
	c-0.251,0.251-0.54,0.444-0.868,0.58c-0.328,0.136-0.669,0.204-1.024,0.204c-0.355,0-0.696-0.068-1.024-0.204
	c-0.328-0.136-0.617-0.329-0.868-0.58c-0.251-0.251-0.444-0.54-0.58-0.868s-0.203-0.669-0.203-1.023
	c0-0.355,0.068-0.696,0.203-1.024s0.329-0.617,0.58-0.868c0.251-0.25,0.54-0.444,0.868-0.58
	C23.937,110.779,24.278,110.711,24.633,110.711z"/>
<path fill="#F9B544" d="M39.09,110.711c0.355,0,0.696,0.068,1.024,0.204c0.328,0.136,0.617,0.329,0.868,0.58
	c0.251,0.251,0.444,0.54,0.58,0.868s0.204,0.669,0.204,1.024c0,0.354-0.068,0.696-0.204,1.023s-0.329,0.617-0.58,0.868
	c-0.251,0.251-0.54,0.444-0.868,0.58c-0.328,0.136-0.669,0.204-1.024,0.204c-0.355,0-0.696-0.068-1.024-0.204
	c-0.328-0.136-0.617-0.329-0.868-0.58c-0.251-0.251-0.444-0.54-0.58-0.868s-0.203-0.669-0.203-1.023
	c0-0.355,0.068-0.696,0.203-1.024s0.329-0.617,0.58-0.868c0.251-0.25,0.54-0.444,0.868-0.58
	C38.395,110.779,38.736,110.711,39.09,110.711z"/>
<path fill="#F9B544" d="M53.548,110.711c0.355,0,0.696,0.068,1.024,0.204c0.328,0.136,0.617,0.329,0.868,0.58
	c0.251,0.251,0.444,0.54,0.58,0.868s0.204,0.669,0.204,1.024c0,0.354-0.068,0.696-0.204,1.023s-0.329,0.617-0.58,0.868
	c-0.251,0.251-0.54,0.444-0.868,0.58c-0.328,0.136-0.669,0.204-1.024,0.204c-0.355,0-0.696-0.068-1.024-0.204
	c-0.328-0.136-0.617-0.329-0.868-0.58c-0.251-0.251-0.444-0.54-0.58-0.868s-0.203-0.669-0.203-1.023
	c0-0.355,0.068-0.696,0.203-1.024s0.329-0.617,0.58-0.868c0.251-0.25,0.54-0.444,0.868-0.58
	C52.852,110.779,53.193,110.711,53.548,110.711z"/>
<path fill="#F9B544" d="M68.006,110.711c0.355,0,0.696,0.068,1.024,0.204c0.328,0.136,0.617,0.329,0.868,0.58
	c0.251,0.251,0.444,0.54,0.58,0.868s0.204,0.669,0.204,1.024c0,0.354-0.068,0.696-0.204,1.023s-0.329,0.617-0.58,0.868
	c-0.251,0.251-0.54,0.444-0.868,0.58c-0.328,0.136-0.669,0.204-1.024,0.204c-0.355,0-0.696-0.068-1.024-0.204
	c-0.328-0.136-0.617-0.329-0.868-0.58c-0.251-0.251-0.444-0.54-0.58-0.868s-0.203-0.669-0.203-1.023
	c0-0.355,0.068-0.696,0.203-1.024s0.329-0.617,0.58-0.868c0.251-0.25,0.54-0.444,0.868-0.58
	C67.31,110.779,67.651,110.711,68.006,110.711z"/>
<path fill="#F9B544" d="M82.464,110.711c0.355,0,0.696,0.068,1.024,0.204c0.328,0.136,0.617,0.329,0.868,0.58
	c0.251,0.251,0.444,0.54,0.58,0.868s0.204,0.669,0.204,1.024c0,0.354-0.068,0.696-0.204,1.023s-0.329,0.617-0.58,0.868
	c-0.251,0.251-0.54,0.444-0.868,0.58c-0.328,0.136-0.669,0.204-1.024,0.204c-0.355,0-0.696-0.068-1.024-0.204
	c-0.328-0.136-0.617-0.329-0.868-0.58c-0.251-0.251-0.444-0.54-0.58-0.868s-0.203-0.669-0.203-1.023
	c0-0.355,0.068-0.696,0.203-1.024s0.329-0.617,0.58-0.868c0.251-0.25,0.54-0.444,0.868-0.58
	C81.768,110.779,82.109,110.711,82.464,110.711z"/>
<path fill="#F9B544" d="M96.922,110.711c0.355,0,0.696,0.068,1.024,0.204c0.328,0.136,0.617,0.329,0.868,0.58
	c0.251,0.251,0.444,0.54,0.58,0.868s0.204,0.669,0.204,1.024c0,0.354-0.068,0.696-0.204,1.023s-0.329,0.617-0.58,0.868
	c-0.251,0.251-0.54,0.444-0.868,0.58c-0.328,0.136-0.669,0.204-1.024,0.204c-0.355,0-0.696-0.068-1.024-0.204
	c-0.328-0.136-0.617-0.329-0.868-0.58c-0.251-0.251-0.444-0.54-0.58-0.868s-0.203-0.669-0.203-1.023
	c0-0.355,0.068-0.696,0.203-1.024s0.329-0.617,0.58-0.868c0.251-0.25,0.54-0.444,0.868-0.58
	C96.226,110.779,96.567,110.711,96.922,110.711z"/>
<path fill="#F9B544" d="M111.38,110.711c0.355,0,0.696,0.068,1.024,0.204c0.328,0.136,0.617,0.329,0.868,0.58
	c0.251,0.251,0.444,0.54,0.58,0.868s0.204,0.669,0.204,1.024c0,0.354-0.068,0.696-0.204,1.023s-0.329,0.617-0.58,0.868
	c-0.251,0.251-0.54,0.444-0.868,0.58c-0.328,0.136-0.669,0.204-1.024,0.204c-0.355,0-0.696-0.068-1.024-0.204
	c-0.328-0.136-0.617-0.329-0.868-0.58c-0.251-0.251-0.444-0.54-0.58-0.868s-0.203-0.669-0.203-1.023
	c0-0.355,0.068-0.696,0.203-1.024s0.329-0.617,0.58-0.868c0.251-0.25,0.54-0.444,0.868-0.58
	C110.684,110.779,111.025,110.711,111.38,110.711z"/>
<path fill="#F9B544" d="M125.837,110.711c0.355,0,0.696,0.068,1.024,0.204c0.328,0.136,0.617,0.329,0.868,0.58
	c0.251,0.251,0.444,0.54,0.58,0.868s0.204,0.669,0.204,1.024c0,0.354-0.068,0.696-0.204,1.023s-0.329,0.617-0.58,0.868
	c-0.251,0.251-0.54,0.444-0.868,0.58c-0.328,0.136-0.669,0.204-1.024,0.204c-0.355,0-0.696-0.068-1.024-0.204
	c-0.328-0.136-0.617-0.329-0.868-0.58c-0.251-0.251-0.444-0.54-0.58-0.868s-0.203-0.669-0.203-1.023
	c0-0.355,0.068-0.696,0.203-1.024s0.329-0.617,0.58-0.868c0.251-0.25,0.54-0.444,0.868-0.58
	C125.141,110.779,125.483,110.711,125.837,110.711z"/>
<path fill="#F9B544" d="M140.295,110.711c0.355,0,0.696,0.068,1.024,0.204c0.328,0.136,0.617,0.329,0.868,0.58
	c0.251,0.251,0.444,0.54,0.58,0.868s0.204,0.669,0.204,1.024c0,0.354-0.068,0.696-0.204,1.023s-0.329,0.617-0.58,0.868
	c-0.251,0.251-0.54,0.444-0.868,0.58c-0.328,0.136-0.669,0.204-1.024,0.204c-0.355,0-0.696-0.068-1.024-0.204
	c-0.328-0.136-0.617-0.329-0.868-0.58c-0.251-0.251-0.444-0.54-0.58-0.868s-0.203-0.669-0.203-1.023
	c0-0.355,0.068-0.696,0.203-1.024s0.329-0.617,0.58-0.868c0.251-0.25,0.54-0.444,0.868-0.58
	C139.599,110.779,139.941,110.711,140.295,110.711z"/>
<path fill="#F9B544" d="M10.175,125.241c0.355,0,0.696,0.067,1.024,0.203c0.328,0.136,0.617,0.329,0.868,0.58
	c0.251,0.251,0.444,0.54,0.58,0.868s0.204,0.669,0.204,1.023c0,0.355-0.068,0.696-0.204,1.024c-0.136,0.328-0.329,0.617-0.58,0.868
	c-0.251,0.25-0.54,0.444-0.868,0.58c-0.328,0.136-0.669,0.204-1.024,0.204c-0.355,0-0.696-0.068-1.024-0.204
	c-0.328-0.136-0.617-0.329-0.868-0.58c-0.251-0.251-0.444-0.54-0.58-0.868c-0.136-0.328-0.203-0.669-0.203-1.024
	c0-0.354,0.068-0.696,0.203-1.023s0.329-0.617,0.58-0.868c0.251-0.251,0.54-0.444,0.868-0.58
	C9.479,125.309,9.82,125.241,10.175,125.241z"/>
<path fill="#F9B544" d="M24.633,125.241c0.355,0,0.696,0.067,1.024,0.203c0.328,0.136,0.617,0.329,0.868,0.58
	c0.251,0.251,0.444,0.54,0.58,0.868s0.204,0.669,0.204,1.023c0,0.355-0.068,0.696-0.204,1.024c-0.136,0.328-0.329,0.617-0.58,0.868
	c-0.251,0.25-0.54,0.444-0.868,0.58c-0.328,0.136-0.669,0.204-1.024,0.204c-0.355,0-0.696-0.068-1.024-0.204
	c-0.328-0.136-0.617-0.329-0.868-0.58c-0.251-0.251-0.444-0.54-0.58-0.868c-0.136-0.328-0.203-0.669-0.203-1.024
	c0-0.354,0.068-0.696,0.203-1.023s0.329-0.617,0.58-0.868c0.251-0.251,0.54-0.444,0.868-0.58
	C23.937,125.309,24.278,125.241,24.633,125.241z"/>
<path fill="#F9B544" d="M39.09,125.241c0.355,0,0.696,0.067,1.024,0.203c0.328,0.136,0.617,0.329,0.868,0.58
	c0.251,0.251,0.444,0.54,0.58,0.868s0.204,0.669,0.204,1.023c0,0.355-0.068,0.696-0.204,1.024c-0.136,0.328-0.329,0.617-0.58,0.868
	c-0.251,0.25-0.54,0.444-0.868,0.58c-0.328,0.136-0.669,0.204-1.024,0.204c-0.355,0-0.696-0.068-1.024-0.204
	c-0.328-0.136-0.617-0.329-0.868-0.58c-0.251-0.251-0.444-0.54-0.58-0.868c-0.136-0.328-0.203-0.669-0.203-1.024
	c0-0.354,0.068-0.696,0.203-1.023s0.329-0.617,0.58-0.868c0.251-0.251,0.54-0.444,0.868-0.58
	C38.395,125.309,38.736,125.241,39.09,125.241z"/>
<path fill="#F9B544" d="M53.548,125.241c0.355,0,0.696,0.067,1.024,0.203c0.328,0.136,0.617,0.329,0.868,0.58
	c0.251,0.251,0.444,0.54,0.58,0.868s0.204,0.669,0.204,1.023c0,0.355-0.068,0.696-0.204,1.024c-0.136,0.328-0.329,0.617-0.58,0.868
	c-0.251,0.25-0.54,0.444-0.868,0.58c-0.328,0.136-0.669,0.204-1.024,0.204c-0.355,0-0.696-0.068-1.024-0.204
	c-0.328-0.136-0.617-0.329-0.868-0.58c-0.251-0.251-0.444-0.54-0.58-0.868c-0.136-0.328-0.203-0.669-0.203-1.024
	c0-0.354,0.068-0.696,0.203-1.023s0.329-0.617,0.58-0.868c0.251-0.251,0.54-0.444,0.868-0.58
	C52.852,125.309,53.193,125.241,53.548,125.241z"/>
<path fill="#F9B544" d="M68.006,125.241c0.355,0,0.696,0.067,1.024,0.203c0.328,0.136,0.617,0.329,0.868,0.58
	c0.251,0.251,0.444,0.54,0.58,0.868s0.204,0.669,0.204,1.023c0,0.355-0.068,0.696-0.204,1.024c-0.136,0.328-0.329,0.617-0.58,0.868
	c-0.251,0.25-0.54,0.444-0.868,0.58c-0.328,0.136-0.669,0.204-1.024,0.204c-0.355,0-0.696-0.068-1.024-0.204
	c-0.328-0.136-0.617-0.329-0.868-0.58c-0.251-0.251-0.444-0.54-0.58-0.868c-0.136-0.328-0.203-0.669-0.203-1.024
	c0-0.354,0.068-0.696,0.203-1.023s0.329-0.617,0.58-0.868c0.251-0.251,0.54-0.444,0.868-0.58
	C67.31,125.309,67.651,125.241,68.006,125.241z"/>
<path fill="#F9B544" d="M82.464,125.241c0.355,0,0.696,0.067,1.024,0.203c0.328,0.136,0.617,0.329,0.868,0.58
	c0.251,0.251,0.444,0.54,0.58,0.868s0.204,0.669,0.204,1.023c0,0.355-0.068,0.696-0.204,1.024c-0.136,0.328-0.329,0.617-0.58,0.868
	c-0.251,0.25-0.54,0.444-0.868,0.58c-0.328,0.136-0.669,0.204-1.024,0.204c-0.355,0-0.696-0.068-1.024-0.204
	c-0.328-0.136-0.617-0.329-0.868-0.58c-0.251-0.251-0.444-0.54-0.58-0.868c-0.136-0.328-0.203-0.669-0.203-1.024
	c0-0.354,0.068-0.696,0.203-1.023s0.329-0.617,0.58-0.868c0.251-0.251,0.54-0.444,0.868-0.58
	C81.768,125.309,82.109,125.241,82.464,125.241z"/>
<path fill="#F9B544" d="M96.922,125.241c0.355,0,0.696,0.067,1.024,0.203c0.328,0.136,0.617,0.329,0.868,0.58
	c0.251,0.251,0.444,0.54,0.58,0.868s0.204,0.669,0.204,1.023c0,0.355-0.068,0.696-0.204,1.024c-0.136,0.328-0.329,0.617-0.58,0.868
	c-0.251,0.25-0.54,0.444-0.868,0.58c-0.328,0.136-0.669,0.204-1.024,0.204c-0.355,0-0.696-0.068-1.024-0.204
	c-0.328-0.136-0.617-0.329-0.868-0.58c-0.251-0.251-0.444-0.54-0.58-0.868c-0.136-0.328-0.203-0.669-0.203-1.024
	c0-0.354,0.068-0.696,0.203-1.023s0.329-0.617,0.58-0.868c0.251-0.251,0.54-0.444,0.868-0.58
	C96.226,125.309,96.567,125.241,96.922,125.241z"/>
<path fill="#F9B544" d="M111.38,125.241c0.355,0,0.696,0.067,1.024,0.203c0.328,0.136,0.617,0.329,0.868,0.58
	c0.251,0.251,0.444,0.54,0.58,0.868s0.204,0.669,0.204,1.023c0,0.355-0.068,0.696-0.204,1.024c-0.136,0.328-0.329,0.617-0.58,0.868
	c-0.251,0.25-0.54,0.444-0.868,0.58c-0.328,0.136-0.669,0.204-1.024,0.204c-0.355,0-0.696-0.068-1.024-0.204
	c-0.328-0.136-0.617-0.329-0.868-0.58c-0.251-0.251-0.444-0.54-0.58-0.868c-0.136-0.328-0.203-0.669-0.203-1.024
	c0-0.354,0.068-0.696,0.203-1.023s0.329-0.617,0.58-0.868c0.251-0.251,0.54-0.444,0.868-0.58
	C110.684,125.309,111.025,125.241,111.38,125.241z"/>
<path fill="#F9B544" d="M125.837,125.241c0.355,0,0.696,0.067,1.024,0.203c0.328,0.136,0.617,0.329,0.868,0.58
	c0.251,0.251,0.444,0.54,0.58,0.868s0.204,0.669,0.204,1.023c0,0.355-0.068,0.696-0.204,1.024c-0.136,0.328-0.329,0.617-0.58,0.868
	c-0.251,0.25-0.54,0.444-0.868,0.58c-0.328,0.136-0.669,0.204-1.024,0.204c-0.355,0-0.696-0.068-1.024-0.204
	c-0.328-0.136-0.617-0.329-0.868-0.58c-0.251-0.251-0.444-0.54-0.58-0.868c-0.136-0.328-0.203-0.669-0.203-1.024
	c0-0.354,0.068-0.696,0.203-1.023s0.329-0.617,0.58-0.868c0.251-0.251,0.54-0.444,0.868-0.58
	C125.141,125.309,125.483,125.241,125.837,125.241z"/>
<path fill="#F9B544" d="M140.295,125.241c0.355,0,0.696,0.067,1.024,0.203c0.328,0.136,0.617,0.329,0.868,0.58
	c0.251,0.251,0.444,0.54,0.58,0.868s0.204,0.669,0.204,1.023c0,0.355-0.068,0.696-0.204,1.024c-0.136,0.328-0.329,0.617-0.58,0.868
	c-0.251,0.25-0.54,0.444-0.868,0.58c-0.328,0.136-0.669,0.204-1.024,0.204c-0.355,0-0.696-0.068-1.024-0.204
	c-0.328-0.136-0.617-0.329-0.868-0.58c-0.251-0.251-0.444-0.54-0.58-0.868c-0.136-0.328-0.203-0.669-0.203-1.024
	c0-0.354,0.068-0.696,0.203-1.023s0.329-0.617,0.58-0.868c0.251-0.251,0.54-0.444,0.868-0.58
	C139.599,125.309,139.941,125.241,140.295,125.241z"/>
<path fill="#F9B544" d="M10.175,139.771c0.355,0,0.696,0.068,1.024,0.204c0.328,0.136,0.617,0.329,0.868,0.58
	c0.251,0.25,0.444,0.54,0.58,0.868s0.204,0.669,0.204,1.023s-0.068,0.696-0.204,1.023s-0.329,0.617-0.58,0.868
	c-0.251,0.251-0.54,0.444-0.868,0.58c-0.328,0.136-0.669,0.204-1.024,0.204c-0.355,0-0.696-0.068-1.024-0.204
	c-0.328-0.136-0.617-0.329-0.868-0.58c-0.251-0.25-0.444-0.54-0.58-0.868S7.5,142.8,7.5,142.446s0.068-0.696,0.203-1.023
	s0.329-0.617,0.58-0.868c0.251-0.251,0.54-0.444,0.868-0.58C9.479,139.839,9.82,139.771,10.175,139.771z"/>
<path fill="#F9B544" d="M24.633,139.771c0.355,0,0.696,0.068,1.024,0.204c0.328,0.136,0.617,0.329,0.868,0.58
	c0.251,0.25,0.444,0.54,0.58,0.868s0.204,0.669,0.204,1.023s-0.068,0.696-0.204,1.023s-0.329,0.617-0.58,0.868
	c-0.251,0.251-0.54,0.444-0.868,0.58c-0.328,0.136-0.669,0.204-1.024,0.204c-0.355,0-0.696-0.068-1.024-0.204
	c-0.328-0.136-0.617-0.329-0.868-0.58c-0.251-0.25-0.444-0.54-0.58-0.868s-0.203-0.669-0.203-1.023s0.068-0.696,0.203-1.023
	s0.329-0.617,0.58-0.868c0.251-0.251,0.54-0.444,0.868-0.58C23.937,139.839,24.278,139.771,24.633,139.771z"/>
<path fill="#F9B544" d="M39.09,139.771c0.355,0,0.696,0.068,1.024,0.204c0.328,0.136,0.617,0.329,0.868,0.58
	c0.251,0.25,0.444,0.54,0.58,0.868s0.204,0.669,0.204,1.023s-0.068,0.696-0.204,1.023s-0.329,0.617-0.58,0.868
	c-0.251,0.251-0.54,0.444-0.868,0.58c-0.328,0.136-0.669,0.204-1.024,0.204c-0.355,0-0.696-0.068-1.024-0.204
	c-0.328-0.136-0.617-0.329-0.868-0.58c-0.251-0.25-0.444-0.54-0.58-0.868s-0.203-0.669-0.203-1.023s0.068-0.696,0.203-1.023
	s0.329-0.617,0.58-0.868c0.251-0.251,0.54-0.444,0.868-0.58C38.395,139.839,38.736,139.771,39.09,139.771z"/>
<path fill="#F9B544" d="M53.548,139.771c0.355,0,0.696,0.068,1.024,0.204c0.328,0.136,0.617,0.329,0.868,0.58
	c0.251,0.25,0.444,0.54,0.58,0.868s0.204,0.669,0.204,1.023s-0.068,0.696-0.204,1.023s-0.329,0.617-0.58,0.868
	c-0.251,0.251-0.54,0.444-0.868,0.58c-0.328,0.136-0.669,0.204-1.024,0.204c-0.355,0-0.696-0.068-1.024-0.204
	c-0.328-0.136-0.617-0.329-0.868-0.58c-0.251-0.25-0.444-0.54-0.58-0.868s-0.203-0.669-0.203-1.023s0.068-0.696,0.203-1.023
	s0.329-0.617,0.58-0.868c0.251-0.251,0.54-0.444,0.868-0.58C52.852,139.839,53.193,139.771,53.548,139.771z"/>
<path fill="#F9B544" d="M68.006,139.771c0.355,0,0.696,0.068,1.024,0.204c0.328,0.136,0.617,0.329,0.868,0.58
	c0.251,0.25,0.444,0.54,0.58,0.868s0.204,0.669,0.204,1.023s-0.068,0.696-0.204,1.023s-0.329,0.617-0.58,0.868
	c-0.251,0.251-0.54,0.444-0.868,0.58c-0.328,0.136-0.669,0.204-1.024,0.204c-0.355,0-0.696-0.068-1.024-0.204
	c-0.328-0.136-0.617-0.329-0.868-0.58c-0.251-0.25-0.444-0.54-0.58-0.868s-0.203-0.669-0.203-1.023s0.068-0.696,0.203-1.023
	s0.329-0.617,0.58-0.868c0.251-0.251,0.54-0.444,0.868-0.58C67.31,139.839,67.651,139.771,68.006,139.771z"/>
<path fill="#F9B544" d="M82.464,139.771c0.355,0,0.696,0.068,1.024,0.204c0.328,0.136,0.617,0.329,0.868,0.58
	c0.251,0.25,0.444,0.54,0.58,0.868s0.204,0.669,0.204,1.023s-0.068,0.696-0.204,1.023s-0.329,0.617-0.58,0.868
	c-0.251,0.251-0.54,0.444-0.868,0.58c-0.328,0.136-0.669,0.204-1.024,0.204c-0.355,0-0.696-0.068-1.024-0.204
	c-0.328-0.136-0.617-0.329-0.868-0.58c-0.251-0.25-0.444-0.54-0.58-0.868s-0.203-0.669-0.203-1.023s0.068-0.696,0.203-1.023
	s0.329-0.617,0.58-0.868c0.251-0.251,0.54-0.444,0.868-0.58C81.768,139.839,82.109,139.771,82.464,139.771z"/>
<path fill="#F9B544" d="M96.922,139.771c0.355,0,0.696,0.068,1.024,0.204c0.328,0.136,0.617,0.329,0.868,0.58
	c0.251,0.25,0.444,0.54,0.58,0.868s0.204,0.669,0.204,1.023s-0.068,0.696-0.204,1.023s-0.329,0.617-0.58,0.868
	c-0.251,0.251-0.54,0.444-0.868,0.58c-0.328,0.136-0.669,0.204-1.024,0.204c-0.355,0-0.696-0.068-1.024-0.204
	c-0.328-0.136-0.617-0.329-0.868-0.58c-0.251-0.25-0.444-0.54-0.58-0.868s-0.203-0.669-0.203-1.023s0.068-0.696,0.203-1.023
	s0.329-0.617,0.58-0.868c0.251-0.251,0.54-0.444,0.868-0.58C96.226,139.839,96.567,139.771,96.922,139.771z"/>
<path fill="#F9B544" d="M111.38,139.771c0.355,0,0.696,0.068,1.024,0.204c0.328,0.136,0.617,0.329,0.868,0.58
	c0.251,0.25,0.444,0.54,0.58,0.868s0.204,0.669,0.204,1.023s-0.068,0.696-0.204,1.023s-0.329,0.617-0.58,0.868
	c-0.251,0.251-0.54,0.444-0.868,0.58c-0.328,0.136-0.669,0.204-1.024,0.204c-0.355,0-0.696-0.068-1.024-0.204
	c-0.328-0.136-0.617-0.329-0.868-0.58c-0.251-0.25-0.444-0.54-0.58-0.868s-0.203-0.669-0.203-1.023s0.068-0.696,0.203-1.023
	s0.329-0.617,0.58-0.868c0.251-0.251,0.54-0.444,0.868-0.58C110.684,139.839,111.025,139.771,111.38,139.771z"/>
<path fill="#F9B544" d="M125.837,139.771c0.355,0,0.696,0.068,1.024,0.204c0.328,0.136,0.617,0.329,0.868,0.58
	c0.251,0.25,0.444,0.54,0.58,0.868s0.204,0.669,0.204,1.023s-0.068,0.696-0.204,1.023s-0.329,0.617-0.58,0.868
	c-0.251,0.251-0.54,0.444-0.868,0.58c-0.328,0.136-0.669,0.204-1.024,0.204c-0.355,0-0.696-0.068-1.024-0.204
	c-0.328-0.136-0.617-0.329-0.868-0.58c-0.251-0.25-0.444-0.54-0.58-0.868s-0.203-0.669-0.203-1.023s0.068-0.696,0.203-1.023
	s0.329-0.617,0.58-0.868c0.251-0.251,0.54-0.444,0.868-0.58C125.141,139.839,125.483,139.771,125.837,139.771z"/>
<path fill="#F9B544" d="M140.295,139.771c0.355,0,0.696,0.068,1.024,0.204c0.328,0.136,0.617,0.329,0.868,0.58
	c0.251,0.25,0.444,0.54,0.58,0.868s0.204,0.669,0.204,1.023s-0.068,0.696-0.204,1.023s-0.329,0.617-0.58,0.868
	c-0.251,0.251-0.54,0.444-0.868,0.58c-0.328,0.136-0.669,0.204-1.024,0.204c-0.355,0-0.696-0.068-1.024-0.204
	c-0.328-0.136-0.617-0.329-0.868-0.58c-0.251-0.25-0.444-0.54-0.58-0.868s-0.203-0.669-0.203-1.023s0.068-0.696,0.203-1.023
	s0.329-0.617,0.58-0.868c0.251-0.251,0.54-0.444,0.868-0.58C139.599,139.839,139.941,139.771,140.295,139.771z"/>
</svg>
