<?xml version="1.0" encoding="utf-8"?>
<!-- Generator: Adobe Illustrator 17.0.0, SVG Export Plug-In . SVG Version: 6.00 Build 0)  -->
<!DOCTYPE svg PUBLIC "-//W3C//DTD SVG 1.1//EN" "http://www.w3.org/Graphics/SVG/1.1/DTD/svg11.dtd">
<svg version="1.1" id="Layer_1" xmlns="http://www.w3.org/2000/svg" xmlns:xlink="http://www.w3.org/1999/xlink" x="0px" y="0px"
	 width="64px" height="64px" viewBox="0 0 64 64" enable-background="new 0 0 64 64" xml:space="preserve">
<path fill="#F27F20" d="M61.313,46.752l-8.652-8.653c-3.09-3.091-8.343-1.853-9.579,2.164c-0.927,2.781-4.017,4.326-6.798,3.708
	c-6.18-1.545-14.524-9.579-16.069-16.068c-0.927-2.781,0.927-5.872,3.708-6.798c4.017-1.236,5.253-6.491,2.163-9.579l-8.652-8.653
	c-2.472-2.162-6.18-2.162-8.343,0L3.218,8.744c-5.871,6.179,0.618,22.557,15.142,37.082c14.524,14.523,30.901,21.321,37.082,15.14
	l5.871-5.87C63.476,52.624,63.476,48.914,61.313,46.752z"/>
</svg>
