<?xml version="1.0" encoding="utf-8"?>
<!-- Generator: Adobe Illustrator 17.0.0, SVG Export Plug-In . SVG Version: 6.00 Build 0)  -->
<!DOCTYPE svg PUBLIC "-//W3C//DTD SVG 1.1//EN" "http://www.w3.org/Graphics/SVG/1.1/DTD/svg11.dtd">
<svg version="1.1" id="Layer_1" xmlns="http://www.w3.org/2000/svg" xmlns:xlink="http://www.w3.org/1999/xlink" x="0px" y="0px"
	 width="64px" height="64px" viewBox="0 0 64 64" enable-background="new 0 0 64 64" xml:space="preserve">
<g>
	<path d="M14.902,10.311c-7.515,0-13.628,6.112-13.628,13.627c0,7.25,5.689,13.195,12.837,13.607
		c0.124,1.336,0.031,4.973-3.455,10.033c-0.263,0.381-0.216,0.897,0.112,1.224c1.426,1.426,2.308,2.325,2.925,2.952
		c0.807,0.822,1.176,1.197,1.715,1.686c0.183,0.166,0.413,0.249,0.645,0.249c0.225,0,0.449-0.079,0.63-0.235
		c6.074-5.285,12.82-16.205,11.844-29.585C27.956,16.013,22.226,10.311,14.902,10.311z M16.063,51.418
		c-0.262-0.258-0.56-0.562-1-1.009c-0.534-0.545-1.268-1.292-2.38-2.407c4.23-6.518,3.431-11.16,3.081-11.827
		c-0.166-0.316-0.506-0.529-0.863-0.529c-6.455,0-11.707-5.252-11.707-11.708c0-6.455,5.252-11.707,11.707-11.707
		c6.288,0,11.213,4.953,11.711,11.776C27.71,39.058,18.765,48.829,16.063,51.418z"/>
	<path d="M62.631,23.869L62.631,23.869c-0.574-7.856-6.305-13.558-13.627-13.558c-7.515,0-13.628,6.112-13.628,13.627
		c0,7.25,5.69,13.195,12.839,13.607c0.124,1.335,0.03,4.97-3.456,10.033c-0.264,0.381-0.216,0.897,0.112,1.223
		c1.421,1.421,2.3,2.317,2.917,2.945c0.811,0.827,1.182,1.204,1.724,1.695c0.183,0.165,0.414,0.248,0.645,0.248
		c0.225,0,0.449-0.079,0.63-0.236C56.859,48.168,63.606,37.249,62.631,23.869z M50.165,51.418c-0.264-0.259-0.564-0.566-1.008-1.018
		c-0.534-0.544-1.265-1.288-2.372-2.399c4.23-6.519,3.432-11.16,3.083-11.827c-0.166-0.315-0.507-0.529-0.864-0.529
		c-6.456,0-11.708-5.252-11.708-11.708c0-6.455,5.252-11.707,11.708-11.707c6.287,0,11.213,4.953,11.712,11.777v-0.001
		C61.812,39.055,52.868,48.829,50.165,51.418z"/>
</g>
</svg>
