<?xml version="1.0" encoding="utf-8"?>
<!-- Generator: Adobe Illustrator 17.0.0, SVG Export Plug-In . SVG Version: 6.00 Build 0)  -->
<!DOCTYPE svg PUBLIC "-//W3C//DTD SVG 1.1//EN" "http://www.w3.org/Graphics/SVG/1.1/DTD/svg11.dtd">
<svg version="1.1" id="Layer_1" xmlns="http://www.w3.org/2000/svg" xmlns:xlink="http://www.w3.org/1999/xlink" x="0px" y="0px"
	 width="79.624px" height="23.94px" viewBox="0 0 79.624 23.94" enable-background="new 0 0 79.624 23.94" xml:space="preserve">
<g>
	<path fill="#FED42F" d="M11.484,4.166c-0.04-0.122-0.145-0.211-0.272-0.229L7.647,3.418l-1.594-3.23C5.995,0.073,5.878,0,5.75,0
		S5.505,0.073,5.448,0.187l-1.594,3.23L0.288,3.936C0.162,3.955,0.056,4.043,0.017,4.166c-0.04,0.122-0.007,0.256,0.085,0.345
		l2.58,2.515l-0.609,3.551c-0.022,0.126,0.03,0.254,0.134,0.33c0.104,0.075,0.241,0.085,0.355,0.025L5.75,9.255l3.189,1.676
		c0.049,0.026,0.103,0.039,0.157,0.039c0.07,0,0.139-0.022,0.198-0.064c0.104-0.076,0.156-0.203,0.134-0.33L8.818,7.025l2.58-2.515
		C11.49,4.421,11.523,4.288,11.484,4.166z"/>
	<path fill="#FABF29" d="M11.484,4.166c-0.04-0.122-0.145-0.211-0.272-0.229L7.647,3.418l-1.594-3.23C5.995,0.073,5.878,0,5.75,0
		v9.255l3.189,1.676c0.049,0.026,0.103,0.039,0.157,0.039c0.07,0,0.139-0.022,0.198-0.064c0.104-0.076,0.156-0.203,0.134-0.33
		L8.818,7.025l2.58-2.515C11.49,4.421,11.523,4.288,11.484,4.166z"/>
	<path fill="#FED42F" d="M28.484,4.166c-0.04-0.122-0.145-0.211-0.272-0.229l-3.565-0.518l-1.594-3.23
		C22.995,0.073,22.878,0,22.75,0s-0.245,0.073-0.302,0.188l-1.594,3.23l-3.565,0.518c-0.127,0.019-0.232,0.107-0.272,0.229
		c-0.04,0.122-0.007,0.256,0.085,0.345l2.58,2.515l-0.609,3.551c-0.022,0.126,0.03,0.254,0.134,0.33
		c0.104,0.075,0.241,0.085,0.355,0.025l3.189-1.676l3.189,1.676c0.049,0.026,0.103,0.039,0.157,0.039
		c0.07,0,0.139-0.022,0.198-0.064c0.104-0.076,0.156-0.203,0.134-0.33l-0.609-3.551l2.58-2.515
		C28.49,4.421,28.523,4.288,28.484,4.166z"/>
	<path fill="#FABF29" d="M28.484,4.166c-0.04-0.122-0.145-0.211-0.272-0.229l-3.565-0.518l-1.594-3.23
		C22.995,0.073,22.878,0,22.75,0v9.255l3.189,1.676c0.049,0.026,0.103,0.039,0.157,0.039c0.07,0,0.139-0.022,0.198-0.064
		c0.104-0.076,0.156-0.203,0.134-0.33l-0.609-3.551l2.58-2.515C28.49,4.421,28.523,4.288,28.484,4.166z"/>
	<path fill="#FED42F" d="M45.484,4.166c-0.04-0.122-0.145-0.211-0.272-0.229l-3.565-0.518l-1.594-3.23
		C39.995,0.073,39.878,0,39.75,0s-0.245,0.073-0.302,0.188l-1.594,3.23l-3.565,0.518c-0.127,0.019-0.232,0.107-0.272,0.229
		c-0.04,0.122-0.007,0.256,0.085,0.345l2.58,2.515l-0.609,3.551c-0.022,0.126,0.03,0.254,0.134,0.33
		c0.104,0.075,0.241,0.085,0.355,0.025l3.189-1.676l3.189,1.676c0.049,0.026,0.103,0.039,0.157,0.039
		c0.07,0,0.139-0.022,0.198-0.064c0.104-0.076,0.156-0.203,0.134-0.33l-0.609-3.551l2.58-2.515
		C45.49,4.421,45.523,4.288,45.484,4.166z"/>
	<path fill="#FABF29" d="M45.484,4.166c-0.04-0.122-0.145-0.211-0.272-0.229l-3.565-0.518l-1.594-3.23
		C39.995,0.073,39.878,0,39.75,0v9.255l3.189,1.676c0.049,0.026,0.103,0.039,0.157,0.039c0.07,0,0.139-0.022,0.198-0.064
		c0.104-0.076,0.156-0.203,0.134-0.33l-0.609-3.551l2.58-2.515C45.49,4.421,45.523,4.288,45.484,4.166z"/>
	<path fill="#FED42F" d="M62.484,4.166c-0.04-0.122-0.145-0.211-0.272-0.229l-3.565-0.518l-1.594-3.23
		C56.995,0.073,56.878,0,56.75,0s-0.245,0.073-0.302,0.188l-1.594,3.23l-3.565,0.518c-0.127,0.019-0.232,0.107-0.272,0.229
		c-0.04,0.122-0.007,0.256,0.085,0.345l2.58,2.515l-0.609,3.551c-0.022,0.126,0.03,0.254,0.134,0.33
		c0.104,0.075,0.241,0.085,0.355,0.025l3.189-1.676l3.189,1.676c0.049,0.026,0.103,0.039,0.157,0.039
		c0.07,0,0.139-0.022,0.198-0.064c0.104-0.076,0.156-0.203,0.134-0.33l-0.609-3.551l2.58-2.515
		C62.49,4.421,62.523,4.288,62.484,4.166z"/>
	<path fill="#FABF29" d="M62.484,4.166c-0.04-0.122-0.145-0.211-0.272-0.229l-3.565-0.518l-1.594-3.23
		C56.995,0.073,56.878,0,56.75,0v9.255l3.189,1.676c0.049,0.026,0.103,0.039,0.157,0.039c0.07,0,0.139-0.022,0.198-0.064
		c0.104-0.076,0.156-0.203,0.134-0.33l-0.609-3.551l2.58-2.515C62.49,4.421,62.523,4.288,62.484,4.166z"/>
	<path fill="#FED42F" d="M79.484,4.166c-0.04-0.122-0.145-0.211-0.272-0.229l-3.565-0.518l-1.594-3.23
		C73.995,0.073,73.878,0,73.75,0s-0.245,0.073-0.302,0.188l-1.594,3.23l-3.565,0.518c-0.127,0.019-0.232,0.107-0.272,0.229
		c-0.04,0.122-0.007,0.256,0.085,0.345l2.58,2.515l-0.609,3.551c-0.022,0.126,0.03,0.254,0.134,0.33
		c0.104,0.075,0.241,0.085,0.355,0.025l3.189-1.676l3.189,1.676c0.049,0.026,0.103,0.039,0.157,0.039
		c0.07,0,0.139-0.022,0.198-0.064c0.104-0.076,0.156-0.203,0.134-0.33l-0.609-3.551l2.58-2.515
		C79.49,4.421,79.523,4.288,79.484,4.166z"/>
	<path fill="#FABF29" d="M79.484,4.166c-0.04-0.122-0.145-0.211-0.272-0.229l-3.565-0.518l-1.594-3.23
		C73.995,0.073,73.878,0,73.75,0v9.255l3.189,1.676c0.049,0.026,0.103,0.039,0.157,0.039c0.07,0,0.139-0.022,0.198-0.064
		c0.104-0.076,0.156-0.203,0.134-0.33l-0.609-3.551l2.58-2.515C79.49,4.421,79.523,4.288,79.484,4.166z"/>
</g>
<g>
	<path fill="#E6E7E8" d="M11.484,17.136c-0.04-0.122-0.145-0.211-0.272-0.229l-3.565-0.518l-1.594-3.23
		C5.995,13.043,5.878,12.97,5.75,12.97s-0.245,0.073-0.302,0.188l-1.594,3.23l-3.565,0.518c-0.127,0.019-0.232,0.107-0.272,0.229
		c-0.04,0.122-0.007,0.256,0.085,0.345l2.58,2.515l-0.609,3.551c-0.022,0.126,0.03,0.254,0.134,0.33
		c0.104,0.075,0.241,0.085,0.355,0.025l3.189-1.676l3.189,1.676c0.049,0.026,0.103,0.039,0.157,0.039
		c0.07,0,0.139-0.022,0.198-0.064c0.104-0.076,0.156-0.203,0.134-0.33l-0.609-3.551l2.58-2.515
		C11.49,17.392,11.523,17.258,11.484,17.136z"/>
	<path fill="#C7C8CA" d="M11.484,17.136c-0.04-0.122-0.145-0.211-0.272-0.229l-3.565-0.518l-1.594-3.23
		C5.995,13.043,5.878,12.97,5.75,12.97v9.255l3.189,1.676c0.049,0.026,0.103,0.039,0.157,0.039c0.07,0,0.139-0.022,0.198-0.064
		c0.104-0.076,0.156-0.203,0.134-0.33l-0.609-3.551l2.58-2.515C11.49,17.392,11.523,17.258,11.484,17.136z"/>
	<path fill="#E6E7E8" d="M28.484,17.136c-0.04-0.122-0.145-0.211-0.272-0.229l-3.565-0.518l-1.594-3.23
		c-0.057-0.115-0.174-0.188-0.302-0.188s-0.245,0.073-0.302,0.188l-1.594,3.23l-3.565,0.518c-0.127,0.019-0.232,0.107-0.272,0.229
		c-0.04,0.122-0.007,0.256,0.085,0.345l2.58,2.515l-0.609,3.551c-0.022,0.126,0.03,0.254,0.134,0.33
		c0.104,0.075,0.241,0.085,0.355,0.025l3.189-1.676l3.189,1.676c0.049,0.026,0.103,0.039,0.157,0.039
		c0.07,0,0.139-0.022,0.198-0.064c0.104-0.076,0.156-0.203,0.134-0.33l-0.609-3.551l2.58-2.515
		C28.49,17.392,28.523,17.258,28.484,17.136z"/>
	<path fill="#C7C8CA" d="M28.484,17.136c-0.04-0.122-0.145-0.211-0.272-0.229l-3.565-0.518l-1.594-3.23
		c-0.057-0.115-0.174-0.188-0.302-0.188v9.255l3.189,1.676c0.049,0.026,0.103,0.039,0.157,0.039c0.07,0,0.139-0.022,0.198-0.064
		c0.104-0.076,0.156-0.203,0.134-0.33l-0.609-3.551l2.58-2.515C28.49,17.392,28.523,17.258,28.484,17.136z"/>
	<path fill="#E6E7E8" d="M45.484,17.136c-0.04-0.122-0.145-0.211-0.272-0.229l-3.565-0.518l-1.594-3.23
		c-0.057-0.115-0.174-0.188-0.302-0.188s-0.245,0.073-0.302,0.188l-1.594,3.23l-3.565,0.518c-0.127,0.019-0.232,0.107-0.272,0.229
		c-0.04,0.122-0.007,0.256,0.085,0.345l2.58,2.515l-0.609,3.551c-0.022,0.126,0.03,0.254,0.134,0.33
		c0.104,0.075,0.241,0.085,0.355,0.025l3.189-1.676l3.189,1.676c0.049,0.026,0.103,0.039,0.157,0.039
		c0.07,0,0.139-0.022,0.198-0.064c0.104-0.076,0.156-0.203,0.134-0.33l-0.609-3.551l2.58-2.515
		C45.49,17.392,45.523,17.258,45.484,17.136z"/>
	<path fill="#C7C8CA" d="M45.484,17.136c-0.04-0.122-0.145-0.211-0.272-0.229l-3.565-0.518l-1.594-3.23
		c-0.057-0.115-0.174-0.188-0.302-0.188v9.255l3.189,1.676c0.049,0.026,0.103,0.039,0.157,0.039c0.07,0,0.139-0.022,0.198-0.064
		c0.104-0.076,0.156-0.203,0.134-0.33l-0.609-3.551l2.58-2.515C45.49,17.392,45.523,17.258,45.484,17.136z"/>
	<path fill="#E6E7E8" d="M62.484,17.136c-0.04-0.122-0.145-0.211-0.272-0.229l-3.565-0.518l-1.594-3.23
		c-0.057-0.115-0.174-0.188-0.302-0.188s-0.245,0.073-0.302,0.188l-1.594,3.23l-3.565,0.518c-0.127,0.019-0.232,0.107-0.272,0.229
		c-0.04,0.122-0.007,0.256,0.085,0.345l2.58,2.515l-0.609,3.551c-0.022,0.126,0.03,0.254,0.134,0.33
		c0.104,0.075,0.241,0.085,0.355,0.025l3.189-1.676l3.189,1.676c0.049,0.026,0.103,0.039,0.157,0.039
		c0.07,0,0.139-0.022,0.198-0.064c0.104-0.076,0.156-0.203,0.134-0.33l-0.609-3.551l2.58-2.515
		C62.49,17.392,62.523,17.258,62.484,17.136z"/>
	<path fill="#C7C8CA" d="M62.484,17.136c-0.04-0.122-0.145-0.211-0.272-0.229l-3.565-0.518l-1.594-3.23
		c-0.057-0.115-0.174-0.188-0.302-0.188v9.255l3.189,1.676c0.049,0.026,0.103,0.039,0.157,0.039c0.07,0,0.139-0.022,0.198-0.064
		c0.104-0.076,0.156-0.203,0.134-0.33l-0.609-3.551l2.58-2.515C62.49,17.392,62.523,17.258,62.484,17.136z"/>
	<path fill="#E6E7E8" d="M79.484,17.136c-0.04-0.122-0.145-0.211-0.272-0.229l-3.565-0.518l-1.594-3.23
		c-0.057-0.115-0.174-0.188-0.302-0.188s-0.245,0.073-0.302,0.188l-1.594,3.23l-3.565,0.518c-0.127,0.019-0.232,0.107-0.272,0.229
		c-0.04,0.122-0.007,0.256,0.085,0.345l2.58,2.515l-0.609,3.551c-0.022,0.126,0.03,0.254,0.134,0.33
		c0.104,0.075,0.241,0.085,0.355,0.025l3.189-1.676l3.189,1.676c0.049,0.026,0.103,0.039,0.157,0.039
		c0.07,0,0.139-0.022,0.198-0.064c0.104-0.076,0.156-0.203,0.134-0.33l-0.609-3.551l2.58-2.515
		C79.49,17.392,79.523,17.258,79.484,17.136z"/>
	<path fill="#C7C8CA" d="M79.484,17.136c-0.04-0.122-0.145-0.211-0.272-0.229l-3.565-0.518l-1.594-3.23
		c-0.057-0.115-0.174-0.188-0.302-0.188v9.255l3.189,1.676c0.049,0.026,0.103,0.039,0.157,0.039c0.07,0,0.139-0.022,0.198-0.064
		c0.104-0.076,0.156-0.203,0.134-0.33l-0.609-3.551l2.58-2.515C79.49,17.392,79.523,17.258,79.484,17.136z"/>
</g>
</svg>
