<?xml version="1.0" encoding="utf-8"?>
<!-- Generator: Adobe Illustrator 17.0.0, SVG Export Plug-In . SVG Version: 6.00 Build 0)  -->
<!DOCTYPE svg PUBLIC "-//W3C//DTD SVG 1.1//EN" "http://www.w3.org/Graphics/SVG/1.1/DTD/svg11.dtd">
<svg version="1.1" id="Layer_1" xmlns="http://www.w3.org/2000/svg" xmlns:xlink="http://www.w3.org/1999/xlink" x="0px" y="0px"
	 width="12px" height="12px" viewBox="0 0 12 12" enable-background="new 0 0 12 12" xml:space="preserve">
<g>
	<g>
		<path fill="#E6E7E8" d="M11.733,4.68c-0.04-0.122-0.145-0.211-0.272-0.229L7.897,3.933l-1.594-3.23
			C6.245,0.588,6.128,0.515,6,0.515S5.755,0.588,5.698,0.702l-1.594,3.23L0.538,4.451C0.412,4.469,0.306,4.558,0.266,4.68
			C0.227,4.802,0.26,4.936,0.352,5.026l2.58,2.515l-0.609,3.551c-0.022,0.126,0.03,0.254,0.134,0.33
			c0.104,0.075,0.241,0.085,0.355,0.025L6,9.77l3.189,1.676c0.049,0.026,0.103,0.039,0.157,0.039c0.07,0,0.139-0.022,0.198-0.064
			c0.104-0.076,0.156-0.203,0.134-0.33L9.068,7.54l2.58-2.515C11.74,4.936,11.773,4.802,11.733,4.68z"/>
		<path fill="#D1D3D4" d="M11.734,4.68c-0.04-0.122-0.145-0.211-0.272-0.229L7.897,3.933l-1.594-3.23
			C6.245,0.588,6.128,0.515,6,0.515V9.77l3.189,1.676c0.049,0.026,0.103,0.039,0.157,0.039c0.07,0,0.139-0.022,0.198-0.064
			c0.104-0.076,0.156-0.203,0.134-0.33L9.068,7.54l2.58-2.515C11.74,4.936,11.773,4.802,11.734,4.68z"/>
	</g>
</g>
</svg>
