<?xml version="1.0" encoding="utf-8"?>
<!-- Generator: Adobe Illustrator 17.0.0, SVG Export Plug-In . SVG Version: 6.00 Build 0)  -->
<!DOCTYPE svg PUBLIC "-//W3C//DTD SVG 1.1//EN" "http://www.w3.org/Graphics/SVG/1.1/DTD/svg11.dtd">
<svg version="1.1" id="Layer_1" xmlns="http://www.w3.org/2000/svg" xmlns:xlink="http://www.w3.org/1999/xlink" x="0px" y="0px"
	 width="64px" height="64px" viewBox="0 0 64 64" enable-background="new 0 0 64 64" xml:space="preserve">
<path d="M32.5,31.99c-7.211,0-13.078-5.867-13.078-13.079S25.289,5.832,32.5,5.832c7.211,0,13.078,5.867,13.078,13.079
	S39.711,31.99,32.5,31.99z M54.42,41.068c-3.376-3.376-7.395-5.874-11.78-7.388c4.696-3.234,7.781-8.647,7.781-14.769
	c0-9.881-8.04-17.922-17.922-17.922c-9.882,0-17.921,8.041-17.921,17.922c0,6.122,3.085,11.534,7.781,14.769
	c-4.384,1.514-8.403,4.012-11.78,7.388C4.725,46.923,1.5,54.708,1.5,62.989h4.844c0-14.422,11.734-26.155,26.156-26.155
	c14.423,0,26.156,11.734,26.156,26.155H63.5C63.5,54.708,60.275,46.923,54.42,41.068z"/>
</svg>
