<?xml version="1.0" encoding="utf-8"?>
<!-- Generator: Adobe Illustrator 17.0.0, SVG Export Plug-In . SVG Version: 6.00 Build 0)  -->
<!DOCTYPE svg PUBLIC "-//W3C//DTD SVG 1.1//EN" "http://www.w3.org/Graphics/SVG/1.1/DTD/svg11.dtd">
<svg version="1.1" id="Layer_1" xmlns="http://www.w3.org/2000/svg" xmlns:xlink="http://www.w3.org/1999/xlink" x="0px" y="0px"
	 width="64px" height="64px" viewBox="0 0 64 64" enable-background="new 0 0 64 64" xml:space="preserve">
<path fill="#0F1041" d="M32.048,55.371C15.93,41.37,4.682,33.59,4.682,22.848c0-8.042,5.517-14.107,12.838-14.107
	c7.052,0,11.423,6.531,12.78,11.38c0.489,1.772,3.005,1.779,3.5,0c1.337-4.785,5.66-11.38,12.78-11.38
	c7.321,0,12.838,6.064,12.838,14.107C59.416,33.597,48.152,41.388,32.048,55.371z M46.578,5.108c-6.602,0-11.504,4.057-14.531,9.81
	c-3.024-5.753-7.923-9.81-14.528-9.81c-9.519,0-16.471,7.993-16.471,17.74c0,12.893,12.3,20.984,29.804,36.301
	c0.686,0.599,1.706,0.599,2.393,0c17.487-15.302,29.803-23.409,29.803-36.301C63.049,13.098,56.098,5.108,46.578,5.108z"/>
</svg>
